<?xml version="1.0" encoding="utf-8"?>
<!-- Uploaded to: SVG Repo, www.svgrepo.com, Generator: SVG Repo Mixer Tools -->
<svg width="800px" height="800px" viewBox="-38.46 0 470.53 470.53" xmlns="http://www.w3.org/2000/svg"><defs><style>.a{fill:#ffffff;}.b{fill:#211715;}.c{fill:#3f88c9;}.d{fill:#7a7473;}.e{fill:#bdbdbd;}.f{fill:#b5886a;}.g{fill:#f4b3b3;}</style></defs><path class="a" d="M47.747,104.884c.425-.182,1.862-.783,2.091-.866,3.464-1.251,3.327-3.478,3.764-5.969a49.094,49.094,0,0,0,.772-8.216,28.381,28.381,0,0,1-7.1-6.241,31.391,31.391,0,0,1-5.983-11.68l-1.179-.18A7.778,7.778,0,0,1,36.49,70.1a11.726,11.726,0,0,1-3.034-3.982,18.463,18.463,0,0,1-1.882-9.785,6.157,6.157,0,0,1,.645-2.479,4.356,4.356,0,0,1,3.133-2.082,4.613,4.613,0,0,1,3.692,1.08s-5.43-30.059,31.015-30.059c36.889,0,30.913,30.059,30.913,30.059a4.616,4.616,0,0,1,3.692-1.08,4.354,4.354,0,0,1,3.133,2.082,6.157,6.157,0,0,1,.645,2.479,18.453,18.453,0,0,1-1.882,9.785,11.726,11.726,0,0,1-3.034,3.982,7.769,7.769,0,0,1-3.618,1.631l-.619.1c-.3,1.111-.63,2.047-.794,2.544-1,2.7-6.307,11.674-13.144,15.7a49.264,49.264,0,0,0,.769,7.973c.437,2.491.3,4.718,3.764,5.969.229.083,2.154.842,2.672,1.071,0,0-1.164,15.483-25.164,15.483S47.747,104.884,47.747,104.884Z"/><path class="a" d="M123.815,241.19a188.18,188.18,0,0,0-4.174,24.687,2.074,2.074,0,0,0,3.493,1.657c.653-.624,1.634-1.556,2.1-2.095a16.906,16.906,0,0,1,2.207-2.413,20.481,20.481,0,0,1,.463,5.545c-.236,6.416.1,6.05-1.387,12.559-.41,1.8-.107,3.256.36,3.594,2.978,2.157,6.53,0,8.28-2.284a14.119,14.119,0,0,0,1.889-3.464c2.493-6.372,1.642-12.5.1-19.162s-3.743-13.271-3.857-20.112"/><path class="a" d="M16.875,240.774a194.179,194.179,0,0,1,4.092,25.1,2.074,2.074,0,0,1-3.493,1.657c-.653-.624-1.634-1.556-2.1-2.095a16.966,16.966,0,0,0-2.208-2.413,20.435,20.435,0,0,0-.462,5.545c.235,6.416-.1,6.05,1.386,12.559.411,1.8.107,3.256-.36,3.594-2.978,2.157-6.53,0-8.28-2.284a14.119,14.119,0,0,1-1.889-3.464c-2.493-6.372-1.642-12.5-.1-19.162S7.207,246.543,7.321,239.7"/><path class="b" d="M121.115,243.734a130.593,130.593,0,0,0-3.454,21.9,4.125,4.125,0,0,0,5.262,4.29c2.574-.8,3.97-3.847,5.93-5.484l-3.343-.882a32.106,32.106,0,0,1,.336,6.71c-.05,1.777-.024,3.572-.251,5.338-.5,3.909-3.478,10.47,2.512,11.842s10.027-4.869,11.475-9.713c1.722-5.756.979-11.765-.3-17.526-1.508-6.8-3.83-13.484-4-20.507-.061-2.569-4.061-2.579-4,0,.131,5.567,1.5,10.966,2.866,16.332,1.3,5.111,2.7,10.35,2.432,15.672-.2,3.986-1.649,10.786-6.335,11.827a2.908,2.908,0,0,1-1.08.058,4.687,4.687,0,0,1-.591-.171c-.516-.148-.367-.283-.2.036-.316-.59.144-2.156.311-2.909a46.223,46.223,0,0,0,.673-18.052c-.287-1.617-2.3-1.75-3.343-.883-1.544,1.29-2.7,3.023-4.19,4.4-.2.183-.133.24.023.092-.033.032-.258.018-.259-.032,0-.268.078.412.042-.041a23.971,23.971,0,0,1,.391-4.271,141.416,141.416,0,0,1,2.941-16.962c.588-2.5-3.268-3.572-3.857-1.063Z"/><path class="b" d="M15.636,244.8a141.416,141.416,0,0,1,2.941,16.962c.148,1.355.145,2.78.39,4.118.021.113.058.552.05.125,0,.019-.006.037-.006.056,0,.076.072.065-.126.045-.4-.04.233.171,0,.017-1.719-1.152-2.73-3.194-4.3-4.508-1.038-.867-3.056-.734-3.343.883a49.21,49.21,0,0,0-.358,11.647,33.526,33.526,0,0,0,.668,4.719,34.6,34.6,0,0,1,.714,3.392,3.84,3.84,0,0,1-.067,1.257c.018-.079.25-.324.181-.283a2.711,2.711,0,0,1-.762.318c-1.812.438-3.7-1.12-4.7-2.469a16.74,16.74,0,0,1-2.727-7.486c-.748-5.2.5-10.494,1.746-15.515,1.505-6.054,3.234-12.092,3.382-18.373.061-2.575-3.939-2.574-4,0C5.036,251.8-1.861,263.308.486,275.532c1,5.212,4.071,11.511,10.048,12.054,2.375.216,5.1-.926,5.613-3.43s-.536-5.121-.974-7.576a35.6,35.6,0,0,1-.383-5.248,37.968,37.968,0,0,1,.308-7.774l-3.343.882c1.974,1.649,3.35,4.649,5.93,5.484a4.124,4.124,0,0,0,5.262-4.29,130.593,130.593,0,0,0-3.454-21.9c-.588-2.5-4.446-1.445-3.857,1.063Z"/><path class="b" d="M52.369,90.305a45.417,45.417,0,0,1-.431,5.562c-.2,1.373-.359,2.8-.7,4.153-.032.125-.065.25-.1.373-.018.056-.159.47-.055.193s-.061.124-.09.178c-.073.139-.158.265-.241.4.142-.229.109-.117-.039.035-.1.1-.2.2-.3.3-.333.315.25-.1-.187.129-.15.079-.292.175-.443.254-.337.175-.756.322-1.218.513q-.915.378-1.826.767a2.012,2.012,0,0,0-.718,2.736,2.054,2.054,0,0,0,2.737.718c.251-.107.161-.068-.039.016l.445-.187c.291-.121.582-.243.873-.361a14.993,14.993,0,0,0,2.038-.9,6.466,6.466,0,0,0,2.945-3.8,31.435,31.435,0,0,0,.755-4.315,53.587,53.587,0,0,0,.595-6.763,2,2,0,0,0-4,0Z"/><path class="b" d="M83.353,90.305A53.66,53.66,0,0,0,84,97.44a22.97,22.97,0,0,0,.82,4.307,6.485,6.485,0,0,0,3.391,3.728c.614.29,1.259.515,1.891.764l.966.385.455.185c.486.194-.239-.105.019.006a2.066,2.066,0,0,0,2.737-.717,2.014,2.014,0,0,0-.718-2.736c-1.038-.45-2.091-.872-3.15-1.273a5.4,5.4,0,0,1-.833-.414c-.11-.065-.368-.246-.137-.067a3.619,3.619,0,0,1-.382-.35c-.04-.042-.318-.395-.156-.171s-.115-.206-.143-.255c-.061-.112-.118-.227-.17-.343.206.457.015-.012-.012-.1a28.19,28.19,0,0,1-.721-4.017,45.707,45.707,0,0,1-.508-6.071,2,2,0,0,0-4,0Z"/><path class="c" d="M90.33,101.256a168.079,168.079,0,0,1,28.738,12.489,32.418,32.418,0,0,1,4.747,3.1c-1.088,13.491-3.874,20.878-7.5,40.374-.859,4.616-1.181,47.1-1.181,51.817a222.378,222.378,0,0,0,1.178,26.337c-21.339-.264-70.186-.529-91.846-.8a223.143,223.143,0,0,0,1.1-25.541c0-4.72-.323-47.2-1.182-51.817-3.628-19.5-6.414-26.883-7.5-40.374a32.428,32.428,0,0,1,4.748-3.1,166.4,166.4,0,0,1,27.212-11.969,23.13,23.13,0,0,1,4.81-6.594,46.189,46.189,0,0,0,13.334,9.293c.276.125.584.278.673.568a1.072,1.072,0,0,1-.154.753h4.856a1.072,1.072,0,0,1-.154-.753c.089-.29.4-.443.673-.568a46.189,46.189,0,0,0,13.334-9.293,22.822,22.822,0,0,1,4.647,6.279"/><path class="a" d="M95.816,421.542a30.534,30.534,0,0,0,3.458,13.93L77.1,435.041l.085-12.459"/><path class="a" d="M47.037,421.542a30.547,30.547,0,0,1-3.458,13.93l22.178-.431-.085-12.459"/><path class="b" d="M44.791,421.542a28.709,28.709,0,0,1-3.184,12.92,2.047,2.047,0,0,0,.717,2.737,2.022,2.022,0,0,0,2.737-.718,33.162,33.162,0,0,0,3.73-14.939,2,2,0,0,0-4,0Z"/><path class="b" d="M63.426,422.582l.085,12.459a2,2,0,0,0,4,0l-.085-12.459a2,2,0,0,0-4,0Z"/><path class="b" d="M93.816,421.542a33.163,33.163,0,0,0,3.731,14.939A2,2,0,1,0,101,434.462a28.706,28.706,0,0,1-3.184-12.92,2,2,0,0,0-4,0Z"/><path class="b" d="M75.181,422.582,75.1,435.041a2,2,0,0,0,4,0l.085-12.459a2,2,0,0,0-4,0Z"/><path class="d" d="M24.187,464.063c-.116-.152-.226-.308-.329-.47a8.806,8.806,0,0,1-.583-7.38,24.178,24.178,0,0,1,3.787-6.607q5.482-7.488,11.588-14.49c1.586-1.82,3.38-3.717,5.752-4.165a3.569,3.569,0,0,0,1.774,3.743,8.364,8.364,0,0,0,4.278.965,23.739,23.739,0,0,0,16.619-6.614c-.027,5,.022,6.664,0,11.665a10.486,10.486,0,0,1-.439,3.607c-1.027,2.779-4.075,4.118-6.521,5.792-6.363,4.354-9.714,12.3-16.382,16.171a17.217,17.217,0,0,1-15.914.57A10.037,10.037,0,0,1,24.187,464.063Z"/><path class="d" d="M118.421,464.063c.115-.152.225-.308.328-.47a8.806,8.806,0,0,0,.583-7.38,24.178,24.178,0,0,0-3.787-6.607q-5.483-7.488-11.587-14.49c-1.587-1.82-3.381-3.717-5.753-4.165a3.569,3.569,0,0,1-1.774,3.743,8.364,8.364,0,0,1-4.278.965,23.741,23.741,0,0,1-16.619-6.614c.028,5-.022,6.664,0,11.665a10.486,10.486,0,0,0,.439,3.607c1.028,2.779,4.075,4.118,6.521,5.792,6.363,4.354,9.715,12.3,16.382,16.171a17.217,17.217,0,0,0,15.914.57A10.049,10.049,0,0,0,118.421,464.063Z"/><path class="a" d="M71.087,426.859c9.392,1.952,31.386,2.186,36.318.541.446-7.365,1.259-80.473,3.246-113.47,1.672-27.78,2.988-61.11,4.619-78.508-19.195-.292-69.635-.6-88.785-.915,1.651,17.269,3.488,51.4,5.175,79.423,1.986,33,2.8,106.105,3.245,113.47,4.933,1.645,24.116,1.761,35.557-.426"/><path class="a" d="M129.932,124.622a21.188,21.188,0,0,0-6.195-7.493c-1.089,13.491-3.875,20.877-7.5,40.373-.859,4.617-1.182,47.1-1.182,51.817a285,285,0,0,0,1.44,32.619l18.343-1.875a2.49,2.49,0,0,0,2.183-2.6c-1.676-33.333-3.352-70.227-5.028-103.573A23.9,23.9,0,0,0,129.932,124.622Z"/><path class="a" d="M10.676,124.622a21.181,21.181,0,0,1,6.2-7.493c1.088,13.491,3.874,20.877,7.5,40.373.86,4.617,1.182,47.1,1.182,51.817a285,285,0,0,1-1.44,32.619L5.773,240.063a2.49,2.49,0,0,1-2.183-2.6c1.676-33.333,3.352-70.227,5.028-103.573A23.915,23.915,0,0,1,10.676,124.622Z"/><path class="b" d="M121.815,116.845c-.744,9.072-2.856,17.876-4.782,26.749a138.088,138.088,0,0,0-2.829,14.427c-.23,2.158-.287,4.34-.367,6.506-.517,13.886-.61,27.8-.694,41.688a274.4,274.4,0,0,0,1.427,31.611,2.06,2.06,0,0,0,2,2,2.012,2.012,0,0,0,2-2c-1.758-16.059-1.474-32.155-1.264-48.278.1-7.557.212-15.116.45-22.671.082-2.6.16-5.2.355-7.79.027-.355.063-.71.093-1.066.017-.2.151-.712-.013.044.057-.261.093-.546.141-.8q.9-4.806,1.912-9.589c2.162-10.24,4.713-20.366,5.571-30.827.211-2.565-3.79-2.551-4,0Z"/><path class="b" d="M49.829,99.327A186.006,186.006,0,0,0,30.5,106.99c-6,2.812-12.516,5.683-17.269,10.418-4.244,4.229-6.176,9.6-6.572,15.5-.485,7.211-.724,14.447-1.074,21.666q-1.106,22.794-2.18,45.589-.534,11.175-1.078,22.348-.267,5.462-.539,10.922c-.154,3.092-.881,7.119,2.833,8.4a16.179,16.179,0,0,0,3.432.473l5.968.64,9.241.99a2.013,2.013,0,0,0,2-2,2.046,2.046,0,0,0-2-2L6.5,238.141a4.134,4.134,0,0,1-.706-.076c.382.113-.045-.029-.075-.124a6.591,6.591,0,0,1-.037-2.263q.261-5.209.516-10.419.525-10.669,1.034-21.341,1.037-21.649,2.067-43.3.51-10.582,1.033-21.164c.275-5.535.1-11.291,3.2-16.133,3.838-5.983,11.02-9.033,17.184-12.016a174.494,174.494,0,0,1,20.175-8.119c2.425-.821,1.384-4.686-1.064-3.858Z"/><path class="b" d="M89.716,103.185a176.6,176.6,0,0,1,18.189,7.174c2.895,1.353,5.747,2.8,8.566,4.3a33.215,33.215,0,0,1,8.074,5.576,17.313,17.313,0,0,1,4.245,6.575,27.555,27.555,0,0,1,1.242,7.693q.526,10.5,1.033,21,1.047,21.626,2.067,43.251.513,10.729,1.033,21.458.257,5.257.517,10.513.123,2.478.247,4.957a10.575,10.575,0,0,1,.03,2.191c-.017.1-.627.34-.142.2a17.719,17.719,0,0,1-3,.322l-5.977.64-8.5.911a2.059,2.059,0,0,0-2,2,2.013,2.013,0,0,0,2,2c5.712-.612,11.428-1.192,17.136-1.836a4.706,4.706,0,0,0,4.419-3.469c.4-1.6,0-3.568-.081-5.2q-.137-2.717-.27-5.434-.548-11.1-1.078-22.2-1.095-22.821-2.179-45.643-.532-11.026-1.078-22.052c-.3-5.96-.445-11.95-3.877-17.094-4.251-6.369-11.393-9.73-18.064-12.979a182.992,182.992,0,0,0-21.491-8.7c-2.444-.827-3.493,3.035-1.064,3.858Z"/><path class="b" d="M14.875,116.845c.754,9.188,2.808,18.106,4.769,27.091q.9,4.126,1.735,8.267.506,2.526.979,5.058c.046.243.078.493.132.734-.018-.078-.05-.521,0,.026.183,2.166.287,4.334.368,6.506.516,13.886.61,27.8.694,41.688a274.4,274.4,0,0,1-1.428,31.611,2.012,2.012,0,0,0,2,2,2.046,2.046,0,0,0,2-2c1.758-16.059,1.474-32.155,1.264-48.278-.1-7.557-.211-15.116-.45-22.671-.082-2.6-.159-5.2-.354-7.79a91.143,91.143,0,0,0-2.111-11.69c-2.124-10.147-4.744-20.189-5.594-30.552-.209-2.547-4.21-2.569-4,0Z"/><path class="b" d="M26.485,236.507c10.993.178,21.988.264,32.983.364q19.64.18,39.279.365,8.283.086,16.566.206c2.575.042,2.575-3.958,0-4-10.994-.178-21.989-.264-32.983-.365q-19.64-.178-39.279-.364c-5.522-.058-11.044-.117-16.566-.206-2.575-.042-2.576,3.958,0,4Z"/><path class="b" d="M24.485,234.507c1.436,15.085,2.257,30.234,3.161,45.358.91,15.208,1.939,30.416,2.6,45.637.57,13.1.933,26.21,1.257,39.318q.476,19.255.83,38.512c.152,7.68.215,15.371.523,23.047.014.34.029.681.049,1.021a2.078,2.078,0,0,0,1.468,1.929,28.816,28.816,0,0,0,6.56,1.006c3.095.242,6.206.307,9.31.289a115.856,115.856,0,0,0,20.75-1.721c2.527-.476,1.457-4.332-1.063-3.857a110,110,0,0,1-19.687,1.578c-3.012.017-6.028-.045-9.032-.268a22.922,22.922,0,0,1-5.774-.884l1.468,1.928c-.4-6.678-.361-13.4-.493-20.086q-.373-18.783-.79-37.564c-.315-13.344-.669-26.688-1.2-40.026-.574-14.412-1.53-28.808-2.381-43.207-.942-15.95-1.824-31.914-3.18-47.835q-.178-2.09-.376-4.175a2.054,2.054,0,0,0-2-2,2.014,2.014,0,0,0-2,2Z"/><path class="b" d="M113.313,234.974c-1.441,15.164-2.062,30.414-2.85,45.622-.784,15.106-1.766,30.207-2.417,45.32-.563,13.072-.924,26.153-1.246,39.233q-.472,19.157-.825,38.316c-.151,7.636-.214,15.282-.521,22.914-.014.34-.028.681-.049,1.021l1.469-1.928a12.833,12.833,0,0,1-1.908.428c-.631.1-1.358.18-2.307.261-2.357.2-4.725.282-7.09.317a164.851,164.851,0,0,1-16.543-.562,64.446,64.446,0,0,1-7.407-.986c-2.513-.514-3.588,3.341-1.063,3.857a96.588,96.588,0,0,0,15.388,1.558,138.519,138.519,0,0,0,16.109-.135,25.715,25.715,0,0,0,5.884-.881,2.073,2.073,0,0,0,1.468-1.929c.394-6.636.359-13.317.491-19.962q.371-18.6.781-37.2c.313-13.315.665-26.631,1.189-39.94.564-14.341,1.5-28.664,2.248-43,.834-16.034,1.518-32.092,2.826-48.1q.173-2.117.373-4.233a2.016,2.016,0,0,0-2-2,2.043,2.043,0,0,0-2,2Z"/><path class="b" d="M69.3,283.289c-.538,5.889-.468,11.849-.464,17.756,0,7.1.11,14.209.176,21.313.074,8.029.021,16.06,0,24.09q-.033,16.512-.062,33.025-.024,15.762-.014,31.523.009,5.4.039,10.792c.012,1.635-.053,3.3.082,4.932a2.291,2.291,0,0,0,1.012,1.866,2.011,2.011,0,0,0,2.736-.718,2.05,2.05,0,0,0-.717-2.736l0,0,.717.718c.118.219.245,1.377.242.66,0-.266-.017-.533-.023-.8-.021-.935-.03-1.87-.038-2.805-.03-3.288-.037-6.576-.044-9.863q-.032-15.25,0-30.5.022-16.614.061-33.227c.016-7.719.066-15.439.029-23.158-.063-13.175-.6-26.4.037-39.565.054-1.1.122-2.2.223-3.3a2.016,2.016,0,0,0-2-2,2.042,2.042,0,0,0-2,2Z"/><path class="a" d="M80.605,116.018c4.281-4.255,7.086-9.409,10.249-14.557a22.822,22.822,0,0,0-4.647-6.279,46.189,46.189,0,0,1-13.334,9.293c-.276.125-.584.278-.673.568a1.072,1.072,0,0,0,.154.753,43.086,43.086,0,0,0,2.758,3.561C76.989,111.653,79.345,114.467,80.605,116.018Z"/><path class="a" d="M59.247,116.018c-4.281-4.255-7.085-9.409-10.248-14.557a22.8,22.8,0,0,1,4.646-6.279,46.189,46.189,0,0,0,13.334,9.293c.276.125.584.278.673.568a1.072,1.072,0,0,1-.154.753,43.086,43.086,0,0,1-2.758,3.561C62.863,111.653,60.507,114.467,59.247,116.018Z"/><path class="b" d="M82.019,117.432a59.527,59.527,0,0,0,8.37-11.348c.6-.994,1.2-1.991,1.806-2.984a2.9,2.9,0,0,0,.623-1.905,5.219,5.219,0,0,0-.817-1.8,24.318,24.318,0,0,0-4.38-5.623,2.035,2.035,0,0,0-2.828,0,43.48,43.48,0,0,1-7.17,5.811c-1.259.816-2.556,1.574-3.889,2.262-1.266.653-3.035,1.117-3.462,2.67a3.629,3.629,0,0,0,.946,3.142c.866,1.149,1.779,2.263,2.69,3.376,1.753,2.14,3.536,4.257,5.282,6.4a2.014,2.014,0,0,0,2.829,0,2.046,2.046,0,0,0,0-2.828c-1.458-1.792-2.942-3.561-4.411-5.344-.827-1-1.653-2.008-2.463-3.025-.228-.287-.458-.573-.675-.869-.094-.13-.184-.287-.288-.409-.178-.209.044-.247.018.086l-.273,1.009q-.5.409-.044.15l.31-.142c.313-.148.625-.3.935-.449q.949-.471,1.875-.987,1.908-1.065,3.71-2.3A48.471,48.471,0,0,0,87.621,96.6H84.793a21.848,21.848,0,0,1,4.334,5.873v-2.019c-3.019,4.924-5.83,10.026-9.937,14.153C77.373,116.431,80.2,119.26,82.019,117.432Z"/><path class="b" d="M25.913,463.053c-1.764-2.411-1.3-5.448-.01-7.975a55.6,55.6,0,0,1,5.739-8.272q3.174-4.138,6.559-8.112c1.829-2.153,3.807-5.161,6.733-5.814l-2.46-2.46a5.829,5.829,0,0,0,3.883,6.568c2.632,1.031,5.78.76,8.511.323a25.445,25.445,0,0,0,13.619-6.851l-3.414-1.415c-.022,4.261.165,8.554-.021,12.811-.093,2.138-1.178,3.407-2.892,4.565a57.267,57.267,0,0,0-5.2,3.609c-6.047,5.129-9.633,13.856-17.855,16-4.468,1.166-10.438.41-13.5-3.382a2.014,2.014,0,0,0-2.829,0,2.047,2.047,0,0,0,0,2.828c3.11,3.849,8.921,5.341,13.677,5.006a20.359,20.359,0,0,0,12.98-6.144c3.2-3.157,5.678-6.96,8.876-10.119a31.033,31.033,0,0,1,5.264-3.946,11.8,11.8,0,0,0,4.659-4.621c1.26-2.721.856-6.042.849-8.965-.006-2.548-.017-5.095,0-7.643a2.022,2.022,0,0,0-3.414-1.414,21.425,21.425,0,0,1-9.4,5.293,20.486,20.486,0,0,1-6.213.725c-1.137-.046-4.061-.4-3.718-2.166a2.028,2.028,0,0,0-2.461-2.46c-3.578.8-5.93,3.833-8.189,6.48q-4.026,4.72-7.782,9.663c-4.04,5.3-10.39,13.142-5.439,19.906a2.059,2.059,0,0,0,2.736.718A2.015,2.015,0,0,0,25.913,463.053Z"/><path class="b" d="M60.662,114.6c-4.107-4.127-6.918-9.229-9.937-14.153v2.019A21.827,21.827,0,0,1,55.059,96.6H52.231a48.649,48.649,0,0,0,6.908,5.722q1.8,1.237,3.71,2.3.849.472,1.719.909.465.233.935.454.233.11.466.215.453.26-.044-.15l-.273-1.009c-.022-.285.215-.317.018-.086-.086.1-.154.223-.232.331-.232.324-.483.635-.731.947-.81,1.017-1.636,2.022-2.463,3.025-1.469,1.783-2.953,3.552-4.411,5.344a2.059,2.059,0,0,0,0,2.828,2.015,2.015,0,0,0,2.829,0c1.711-2.1,3.456-4.177,5.175-6.273.922-1.125,1.843-2.253,2.725-3.411a3.72,3.72,0,0,0,1.018-3.237c-.415-1.508-2.073-1.96-3.3-2.59q-2-1.023-3.892-2.242a43.471,43.471,0,0,1-7.324-5.911,2.037,2.037,0,0,0-2.828,0,24.27,24.27,0,0,0-4.293,5.472,7.649,7.649,0,0,0-.868,1.689,2.678,2.678,0,0,0,.587,2.171c.605.993,1.2,1.99,1.806,2.984a59.527,59.527,0,0,0,8.37,11.348C59.651,119.26,62.48,116.432,60.662,114.6Z"/><path class="e" d="M39.044,52.853a4.613,4.613,0,0,0-3.692-1.08,4.3,4.3,0,0,0-.565.122C31.833,38.884,33.259,27.536,39.1,17.633,42.9,11.19,49.71,5.761,56.173,5.012a32.761,32.761,0,0,0,5.072-1.178c7.666-3.573,20.3-1.843,26.534,4.439l-.041-.058a12.7,12.7,0,0,0,2.952,2.073c.393.177,1.682.783,2.1.889,6.24,2.558,10.093,8.469,12.051,16.31,1.983,7.938,1.776,17.853.027,23.688l-.231.594a4.616,4.616,0,0,0-3.665,1.084l-3.978-4.416c-2.671-2.4-.983-10.871-2.971-14.411-2.372-4.224-4.3-4.917-9.368-6.2-1.542-.39-12.748-2-19.09-1.7a45.341,45.341,0,0,0-14.117,3.3C44.6,32.013,42.256,43.139,42.2,48.238Z"/><path class="b" d="M120.148,465.072c4.949-6.764-1.4-14.61-5.44-19.906q-3.763-4.933-7.782-9.663c-2.258-2.647-4.611-5.682-8.189-6.48a2.028,2.028,0,0,0-2.461,2.46c.343,1.767-2.586,2.12-3.718,2.166a20.486,20.486,0,0,1-6.213-.725,21.431,21.431,0,0,1-9.4-5.293,2.022,2.022,0,0,0-3.414,1.414c.012,2.269.006,4.537,0,6.806a48.17,48.17,0,0,0,.189,7.675c.812,5.083,5.969,6.587,9.377,9.571,3.39,2.968,5.9,6.763,8.938,10.058,3.234,3.5,7.2,6.272,11.985,7.069,5.372.9,12.207-.283,15.814-4.747a2.06,2.06,0,0,0,0-2.828,2.014,2.014,0,0,0-2.829,0c-2.682,3.319-7.738,4.319-11.787,3.738-4.286-.614-7.624-3.079-10.478-6.195-2.744-3-5.057-6.375-8-9.183a30.229,30.229,0,0,0-4.906-3.7c-1.437-.9-3.229-1.881-3.929-3.522a11.054,11.054,0,0,1-.371-4.221q0-1.775,0-3.549c.007-2.323.014-4.646,0-6.97L74.12,430.46a25.448,25.448,0,0,0,13.62,6.851c2.665.427,5.737.7,8.323-.252a5.867,5.867,0,0,0,4.071-6.639l-2.461,2.46c2.863.638,4.786,3.527,6.578,5.633q3.459,4.062,6.714,8.293a57.561,57.561,0,0,1,5.642,8.083c1.344,2.572,1.9,5.682.087,8.164a2.015,2.015,0,0,0,.717,2.737A2.046,2.046,0,0,0,120.148,465.072Z"/><path class="b" d="M102.386,54.267a2.535,2.535,0,0,1,3.609.475,5.278,5.278,0,0,1,.508,2.667,15.639,15.639,0,0,1-.222,3.22c-.7,3.829-2.651,8.412-6.9,9.174a2.017,2.017,0,0,0-1.4,2.461,2.044,2.044,0,0,0,2.46,1.4c6.446-1.155,9.521-8.437,10.006-14.279.248-2.993.013-6.42-2.576-8.361a6.65,6.65,0,0,0-8.312.419,2.015,2.015,0,0,0,0,2.828,2.043,2.043,0,0,0,2.828,0Z"/><path class="b" d="M97.861,68.3a17.462,17.462,0,0,1-1.016,4.71c-.091.278-.2.553-.279.833-.037.125-.2.479.023-.033-.142.33-.3.654-.459.975a39.5,39.5,0,0,1-3.411,5.483C89.741,84.35,85.7,88.676,80.6,89.873c-2.5.588-1.444,4.445,1.064,3.857,6.067-1.424,10.776-6.386,14.345-11.219,3.084-4.175,5.64-8.907,5.855-14.214.1-2.574-3.9-2.57-4,0Z"/><path class="b" d="M40.458,51.439a6.652,6.652,0,0,0-8.311-.419c-2.592,1.935-2.824,5.373-2.576,8.361.485,5.842,3.559,13.124,10,14.279a2.057,2.057,0,0,0,2.461-1.4,2.019,2.019,0,0,0-1.4-2.461c-4.254-.762-6.206-5.346-6.905-9.174a15.485,15.485,0,0,1-.224-3.041,6.057,6.057,0,0,1,.435-2.723,2.52,2.52,0,0,1,3.684-.6,2.053,2.053,0,0,0,2.828,0,2.015,2.015,0,0,0,0-2.828Z"/><path class="b" d="M38.365,68.016A35.839,35.839,0,0,0,46,85.172c4.293,5.083,9.976,8.761,16.67,9.483a2.012,2.012,0,0,0,2-2,2.047,2.047,0,0,0-2-2c-5.751-.62-10.556-4.3-14.124-8.65-3.518-4.29-5.377-9.651-6.32-15.052a2.016,2.016,0,0,0-2.46-1.4,2.046,2.046,0,0,0-1.4,2.46Z"/><path class="b" d="M86.324,9.629A16.321,16.321,0,0,0,88.1,11.058a10.671,10.671,0,0,0,1.405.87c.361.181.738.334,1.11.492a12.557,12.557,0,0,0,1.607.628,2.079,2.079,0,0,0,1.542-.2,2,2,0,0,0-.478-3.656,8.8,8.8,0,0,1-1.13-.427l.478.2c-.439-.186-.886-.366-1.306-.594A12.7,12.7,0,0,1,89.652,7.26l.4.313c-.313-.244-.616-.5-.9-.772a2.084,2.084,0,0,0-1.414-.586,2,2,0,0,0-1.414,3.414Z"/><path class="b" d="M44.04,48.347c.01-.693.06-1.384.136-2.073.02-.181.041-.362.066-.543-.057.418.023-.139.037-.224q.1-.648.227-1.292a33.325,33.325,0,0,1,1.545-5.445,19.78,19.78,0,0,1,2.535-4.689c-.157.207.188-.231.22-.269q.239-.284.493-.552a10.761,10.761,0,0,1,.977-.921,6.7,6.7,0,0,1,.744-.5c.171-.1.346-.2.524-.288.118-.06.238-.117.359-.171-.172.075-.146.068.077-.019a2.054,2.054,0,0,0,1.4-2.46,2.018,2.018,0,0,0-2.461-1.4c-4.287,1.579-6.813,5.506-8.469,9.567A31.681,31.681,0,0,0,40.04,48.347c-.038,2.574,3.962,2.575,4,0Z"/><path class="b" d="M60.193,26.905a25.059,25.059,0,0,1,.826-2.608c.157-.4-.136.3-.052.114.039-.087.077-.174.117-.259.071-.151.145-.3.225-.447s.17-.3.264-.445c.117-.179.505-.584.028-.066a8.1,8.1,0,0,1,.639-.658c.064-.055.129-.107.193-.161.246-.206-.1.061-.153.115a4.007,4.007,0,0,1,.484-.351c.34-.238.69-.464,1.048-.675.165-.1.332-.19.5-.278s.765-.328.035-.034a2.193,2.193,0,0,0,1.195-.92,2,2,0,0,0-.718-2.736,1.94,1.94,0,0,0-1.541-.2,12.6,12.6,0,0,0-2.5,1.361,9.549,9.549,0,0,0-2.015,1.711,14.4,14.4,0,0,0-2.436,5.476,2,2,0,0,0,3.857,1.063Z"/><path class="b" d="M67.292,27.143a16.655,16.655,0,0,1,1.268-1.472q.362-.369.751-.709c.114-.1.231-.2.347-.292.173-.144-.21.142.091-.069a28.125,28.125,0,0,1,3.362-1.92c.3-.154-.345.109-.095.041.108-.03.214-.082.32-.12.245-.088.492-.168.74-.245.606-.187,1.221-.348,1.839-.49.34-.077.682-.149,1.025-.213.153-.028.307-.055.461-.08.169-.028.4-.06.1-.021a9.4,9.4,0,0,1,1.718-.086,2,2,0,0,0,0-4,15.952,15.952,0,0,0-4.273.522,19.2,19.2,0,0,0-3.852,1.238,19.493,19.493,0,0,0-3.647,2.135,18.49,18.49,0,0,0-3.607,3.762,2.013,2.013,0,0,0,.717,2.736,2.049,2.049,0,0,0,2.737-.717Z"/><path class="b" d="M84.123,29.759c2.158.487,4.443,1.071,6.09,2.573a11.406,11.406,0,0,1,2.124,2.78c.235.4,0-.075.126.281q.1.285.175.576a12.666,12.666,0,0,1,.3,1.521c.269,1.923.283,4.414.53,6.545.235,2.028.56,4.328,2.11,5.816,1.857,1.783,4.69-1.041,2.829-2.828-.377-.362-.028.072-.19-.208-.087-.151-.173-.3-.245-.46.168.368-.105-.345-.127-.421-.059-.2-.109-.4-.155-.609a19.491,19.491,0,0,1-.381-3.044,43.4,43.4,0,0,0-.764-7.172,11.747,11.747,0,0,0-4.083-6.093A17.54,17.54,0,0,0,85.187,25.9c-2.507-.566-3.578,3.29-1.064,3.857Z"/><path class="b" d="M89.193,6.858c-4.165-4.113-9.976-6.111-15.7-6.7a28.448,28.448,0,0,0-8.636.413c-2.507.515-4.363,1.521-6.773,2.054-.56.123-1.122.232-1.684.341-.052.01-.791.138-.225.049-.4.063-.81.1-1.213.167a19.137,19.137,0,0,0-4.572,1.45,27.524,27.524,0,0,0-8.023,5.62,37.961,37.961,0,0,0-9.6,17.392,51.864,51.864,0,0,0-.183,23.5c.512,2.521,4.368,1.454,3.858-1.064C34.02,38.161,35.293,24.4,43.544,14.84A26.321,26.321,0,0,1,50.4,9.1,21.108,21.108,0,0,1,57.461,6.82,40.2,40.2,0,0,0,63.47,5.085,21.85,21.85,0,0,1,70.72,4c5.555.043,11.606,1.7,15.645,5.687C88.2,11.5,91.028,8.671,89.193,6.858Z"/><path class="b" d="M92.258,13.106c6.183,2.6,9.279,9.145,10.75,15.3a49.329,49.329,0,0,1,1.245,11.916,38.039,38.039,0,0,1-1.313,10.318c-.723,2.476,3.136,3.533,3.857,1.063a42.562,42.562,0,0,0,1.458-11.794,52.979,52.979,0,0,0-1.583-13.342c-1.937-7.454-6.032-14.239-13.35-17.322a2.012,2.012,0,0,0-2.461,1.4,2.053,2.053,0,0,0,1.4,2.46Z"/><path class="b" d="M64.321,77.9a12.85,12.85,0,0,0,6.188,1.441,10.165,10.165,0,0,0,6.333-1.906,2,2,0,0,0,0-2.828,2.06,2.06,0,0,0-2.828,0c.685-.534-.073.019-.293.134-.171.089-.638.229-.027.032-.171.055-.337.13-.509.185-.216.07-.436.129-.657.18a4.533,4.533,0,0,0-.765.145c.028-.07.421-.048-.015-.005-.14.014-.28.026-.42.035-.336.022-.673.03-1.011.028-.3,0-.6-.012-.9-.032-.138-.01-.277-.021-.415-.035-.079-.008-.157-.016-.236-.026q-.233-.028.156.021a3.885,3.885,0,0,1-1.329-.3c-.186-.056-.367-.123-.551-.186-.464-.158.4.193-.022,0-.228-.107-.452-.219-.675-.337A2,2,0,1,0,64.321,77.9Z"/><path class="b" d="M69.286,63.591a27.9,27.9,0,0,1,.658,3.011l-.071-.532a1.809,1.809,0,0,1,.011.416l.072-.532a.983.983,0,0,1-.046.187l.2-.477a.934.934,0,0,1-.066.12l.312-.405a.642.642,0,0,1-.1.1l.405-.313a1.817,1.817,0,0,1-.239.126l.478-.2a1.7,1.7,0,0,1-.4.117l.532-.071a1.593,1.593,0,0,1-.378,0l.532.071c-.142-.019-.282-.054-.424-.073a1.516,1.516,0,0,0-.8-.036,1.486,1.486,0,0,0-.743.237,2,2,0,0,0-.718,2.737,1.916,1.916,0,0,0,1.2.919c.365.049.718.14,1.089.157a3.55,3.55,0,0,0,1.656-.4,2.485,2.485,0,0,0,1.35-1.629,3.884,3.884,0,0,0-.014-1.7c-.164-.971-.388-1.932-.638-2.884a2,2,0,0,0-2.46-1.4,2.022,2.022,0,0,0-1.2.92,2.1,2.1,0,0,0-.2,1.541Z"/><path class="b" d="M53.8,54.941c-.5,1.635-.175,5.394,2.921,5.714,4.092-.025,4.31-4.57,2.932-6.707C58.528,52.2,55.212,51.471,53.8,54.941Z"/><path class="b" d="M86.572,54.941c.5,1.635.175,5.394-2.921,5.714-4.092-.025-4.31-4.57-2.932-6.707C81.846,52.2,85.163,51.471,86.572,54.941Z"/><path class="b" d="M79.7,73.262A6.442,6.442,0,0,1,80.81,74.37l-.313-.4a6.561,6.561,0,0,1,.845,1.448l-.2-.477a6.535,6.535,0,0,1,.312.958,2,2,0,0,0,3.655.478,2.139,2.139,0,0,0,.2-1.541A8.051,8.051,0,0,0,84.275,72.4a7.956,7.956,0,0,0-1.742-1.97,2.222,2.222,0,0,0-1.414-.586,2.037,2.037,0,0,0-1.415.586,2.013,2.013,0,0,0-.585,1.414,1.933,1.933,0,0,0,.585,1.414Z"/><path class="a" d="M362.541,74.674A4.317,4.317,0,0,1,366,73.664a4.077,4.077,0,0,1,2.931,1.949,5.766,5.766,0,0,1,.6,2.318,17.281,17.281,0,0,1-1.762,9.157,10.989,10.989,0,0,1-2.839,3.726,7.273,7.273,0,0,1-3.385,1.526l-.579.089c-.278,1.04-.59,1.915-.743,2.381-1.018,2.761-6.863,12.539-14.123,15.616a38.627,38.627,0,0,0,.61,6.565c.345,1.967.237,3.725,2.972,4.713.172.062,7.948,3.393,8.968,3.826-.211.209-.336.337-.336.337-14.634,9.589-35.962,7.928-48.336-.318,0,0-.246-.217-.623-.544,1.09-.405,8.264-3.238,8.438-3.3,2.734-.988,2.627-2.746,2.971-4.713a38.742,38.742,0,0,0,.61-6.459,24.7,24.7,0,0,1-9.082-7.095,29.361,29.361,0,0,1-5.6-10.927l-1.1-.17a7.273,7.273,0,0,1-3.385-1.526,10.989,10.989,0,0,1-2.839-3.726,17.271,17.271,0,0,1-1.761-9.157,5.748,5.748,0,0,1,.6-2.318,4.077,4.077,0,0,1,2.931-1.949,4.317,4.317,0,0,1,3.455,1.01s-2.091-27.88,28.243-27.88C365.133,46.794,362.541,74.674,362.541,74.674Z"/><path class="f" d="M300.306,95.906a14.968,14.968,0,0,1,.933-6.141,9,9,0,0,0,1.088,1.049,7.278,7.278,0,0,0,3.385,1.526l1.105.169a29.339,29.339,0,0,0,5.6,10.928,26.008,26.008,0,0,0,7.5,6.333c1.448,9.159-20.174,8.592-18.981,5.549,2.428-1.377,2.982-4.732,2.324-7.444s-1.881-5.4-2.449-8.128A24.223,24.223,0,0,1,300.306,95.906Z"/><path class="b" d="M299.313,89.232c-1.834,4.958-.89,10.251.757,15.116.753,2.223,1.849,4.665,1.292,7.055a3.552,3.552,0,0,1-1.159,2.014c-.911.754-1.536,1.462-1.247,2.718.55,2.4,3.719,2.825,5.728,3.048a26.21,26.21,0,0,0,9.143-.644c3.3-.828,6.607-2.519,7.841-5.885.888-2.42-2.976-3.464-3.857-1.063-.122.334.086-.121-.143.285-.034.059-.31.482-.206.342a9.145,9.145,0,0,1-.778.77c.247-.2-.219.156-.246.173-.176.115-.353.227-.535.332-.229.131-.875.455-.908.469a17.928,17.928,0,0,1-5.681,1.277,26.342,26.342,0,0,1-2.933.065q-.646-.021-1.291-.08a4.631,4.631,0,0,1-.912-.12c-.356-.069-.71-.14-1.058-.242-.14-.041-.276-.091-.416-.134-.452-.139.4.166,0,0-.1-.043-.19-.115-.29-.163-.321-.155.3.316.111.077a1.4,1.4,0,0,1,.33,1.2l-.92,1.2c4.527-2.8,3.819-8.311,2.37-12.636-1.553-4.639-2.908-9.334-1.139-14.114.894-2.418-2.97-3.461-3.857-1.064Z"/><path class="f" d="M367.326,57.929c-.207-1.546-.451-2.939-.681-4.065-3-14.726-17.833-26.416-33.384-25.562-15.552-.854-30.382,10.836-33.385,25.562A41.876,41.876,0,0,0,299.9,67.8l1.119,5.887a.711.711,0,0,1,.12-.025,4.338,4.338,0,0,1,3.069.712c5.612-5.225,16.932-13.425,22.357-18.725-.444,3.131-2.022,8.456-.035,7.908,8.3-2.183,16.252-6.585,21.061-13.453a72.132,72.132,0,0,0,3.92,11.927c1.791,3.484,7,11.556,11.555,12.256a4.317,4.317,0,0,1,2.93-.625,3.493,3.493,0,0,1,.43.09C368.266,69.449,367.991,62.9,367.326,57.929Z"/><path class="b" d="M301.828,67.271a35.078,35.078,0,0,1-.284-11.215,26.324,26.324,0,0,1,3.662-10.395A32.109,32.109,0,0,1,323.2,31.551a38.938,38.938,0,0,1,11.506-1.292,29.431,29.431,0,0,1,11.624,2.374A32.14,32.14,0,0,1,362.71,48.279a35.612,35.612,0,0,1,2.856,11.708c.435,4.352.63,9.095-1.062,13.219a2.012,2.012,0,0,0,1.4,2.46,2.05,2.05,0,0,0,2.461-1.4c1.656-4.039,1.648-8.74,1.316-13.024a45.48,45.48,0,0,0-2.241-11.937,35.529,35.529,0,0,0-16.993-19.132,34.933,34.933,0,0,0-12.515-3.76,58.979,58.979,0,0,0-6.473-.158,33.244,33.244,0,0,0-6.566.725,36.193,36.193,0,0,0-21.5,14.173,30.871,30.871,0,0,0-5.6,13.068,38.724,38.724,0,0,0,.184,14.109c.559,2.512,4.416,1.449,3.857-1.063Z"/><path class="b" d="M345.786,51.129c1.311,5.078,2.778,10.192,5.581,14.668,2.486,3.97,5.983,9.079,10.79,10.346,2.492.657,3.554-3.2,1.064-3.857-1.847-.487-3.391-2.054-4.672-3.472a36.642,36.642,0,0,1-4.024-5.514c-2.464-4.044-3.706-8.681-4.882-13.234-.643-2.491-4.5-1.435-3.857,1.063Z"/><path class="b" d="M345.948,48.976a31.8,31.8,0,0,1-13.373,10.4,40.9,40.9,0,0,1-3.936,1.484q-1.029.334-2.072.621c-1.024.283-.073.076.474.466-.094-.067.751.462.526.643a8.052,8.052,0,0,0,.052-1.461c.052-.426.131-.851.207-1.273.221-1.224.484-2.439.667-3.669.279-1.873-1.79-3.453-3.342-1.946C318.2,60.989,310,66.318,302.876,72.885c-1.9,1.749.938,4.572,2.829,2.828,7.119-6.567,15.32-11.9,22.274-18.647l-3.343-1.946c-.214,1.439-.539,2.858-.776,4.293a9.924,9.924,0,0,0-.164,4.072c1.013,3.773,5.908,1.33,8.236.442,6.918-2.64,13.175-6.82,17.47-12.932,1.483-2.11-1.983-4.111-3.454-2.019Z"/><path class="b" d="M363.955,76.089a2.241,2.241,0,0,1,3.175.418,4.8,4.8,0,0,1,.457,2.43,14.5,14.5,0,0,1-.2,2.979c-.646,3.54-2.435,7.789-6.37,8.5a2.017,2.017,0,0,0-1.4,2.46,2.044,2.044,0,0,0,2.46,1.4c6.091-1.092,9-7.965,9.457-13.486.237-2.853-.009-6.089-2.474-7.934a6.352,6.352,0,0,0-7.933.412,2.015,2.015,0,0,0,0,2.829,2.044,2.044,0,0,0,2.828,0Z"/><path class="b" d="M359.5,89.125a16.212,16.212,0,0,1-.946,4.374c-.063.191-.492,1.322-.226.717q-.2.462-.43.913a37.122,37.122,0,0,1-3.191,5.13c-2.768,3.8-6.527,7.819-11.266,8.931-2.506.588-1.445,4.446,1.063,3.857,5.711-1.34,10.14-6.007,13.5-10.556,2.9-3.927,5.294-8.376,5.5-13.366.1-2.574-3.9-2.569-4,0Z"/><path class="b" d="M306.008,73.26a6.355,6.355,0,0,0-7.933-.412c-2.468,1.839-2.71,5.086-2.474,7.934.459,5.521,3.366,12.394,9.457,13.486a2.055,2.055,0,0,0,2.46-1.4,2.017,2.017,0,0,0-1.4-2.46c-3.935-.706-5.724-4.955-6.37-8.5a14.379,14.379,0,0,1-.206-2.811,5.566,5.566,0,0,1,.39-2.483,2.226,2.226,0,0,1,3.245-.533,2.055,2.055,0,0,0,2.828,0,2.016,2.016,0,0,0,0-2.829Z"/><path class="b" d="M303.835,88.9a33.655,33.655,0,0,0,7.174,16.11c4.04,4.784,9.391,8.231,15.689,8.911a2.014,2.014,0,0,0,2-2,2.045,2.045,0,0,0-2-2c-5.347-.577-9.809-4.016-13.125-8.057-3.278-3.994-5-9-5.881-14.028a2.018,2.018,0,0,0-2.46-1.4,2.046,2.046,0,0,0-1.4,2.461Z"/><path class="b" d="M328.6,98.462a12.157,12.157,0,0,0,5.855,1.366,9.645,9.645,0,0,0,6.018-1.821,2,2,0,0,0,0-2.828,2.062,2.062,0,0,0-2.829,0c.691-.538-.029-.009-.248.105-.169.089-.623.23,0,.018-.159.054-.314.121-.475.173-.425.136-.925.145-1.331.3.209-.081.32-.038.02-.008-.131.013-.262.023-.393.032-.315.02-.63.028-.946.026-.282,0-.565-.011-.847-.03-.129-.009-.259-.019-.388-.032l-.221-.025q-.236-.029.18.024c-.075.056-.539-.1-.637-.119q-.306-.068-.606-.157c-.174-.052-.344-.115-.516-.173-.451-.155.419.2.01.008-.213-.1-.423-.206-.632-.316a2,2,0,0,0-2.019,3.454Z"/><path class="b" d="M333.186,85a25.874,25.874,0,0,1,.616,2.818l-.071-.532a1.689,1.689,0,0,1,.01.389l.072-.531a.972.972,0,0,1-.043.175l.2-.478a.679.679,0,0,1-.062.112l.313-.4a.565.565,0,0,1-.092.091l.4-.313a1.831,1.831,0,0,1-.223.119l.478-.2a1.654,1.654,0,0,1-.376.11l.531-.072a1.543,1.543,0,0,1-.353,0l.532.071c-.133-.018-.264-.051-.4-.069a1.512,1.512,0,0,0-.8-.035,1.489,1.489,0,0,0-.744.237,2,2,0,0,0-.717,2.736,1.91,1.91,0,0,0,1.195.919c.352.048.694.136,1.053.152a3.45,3.45,0,0,0,1.614-.394,2.449,2.449,0,0,0,1.323-1.6,3.775,3.775,0,0,0-.014-1.662c-.153-.908-.363-1.808-.6-2.7a2,2,0,0,0-2.461-1.4,2.025,2.025,0,0,0-1.2.919,2.1,2.1,0,0,0-.2,1.541Z"/><path class="b" d="M318.823,76.868c-.471,1.529-.164,5.047,2.733,5.346,3.829-.023,4.033-4.276,2.744-6.275C323.244,74.3,320.141,73.62,318.823,76.868Z"/><path class="b" d="M349.485,76.868c.47,1.529.164,5.047-2.733,5.346-3.829-.023-4.033-4.276-2.744-6.276C345.063,74.3,348.166,73.62,349.485,76.868Z"/><path class="b" d="M342.968,94.1A6,6,0,0,1,344,95.139l-.312-.405a6.17,6.17,0,0,1,.79,1.356l-.2-.478a6.1,6.1,0,0,1,.292.9,2,2,0,0,0,2.46,1.4,2.017,2.017,0,0,0,1.2-.919,2.138,2.138,0,0,0,.2-1.541,7.639,7.639,0,0,0-.981-2.3,7.537,7.537,0,0,0-1.65-1.87,1.489,1.489,0,0,0-.643-.413,1.517,1.517,0,0,0-.771-.173,2.036,2.036,0,0,0-1.414.586,2.012,2.012,0,0,0-.586,1.414l.072.532a2,2,0,0,0,.514.883Z"/><path class="a" d="M289.911,242.968c1.547,6.538,1.407,14.413,1.943,21.11.139,1.732-1.057,2.787-2.312,1.586-.6-.575-3.2-3.552-3.961-4.149,0,2.767-.084,3.272-.016,5.119.217,5.9.46,7.619.866,11.543.175,1.687.1,3-.33,3.308-1.523,1.1-3.4,1.448-4.892.113a11.543,11.543,0,0,1-3.262-4.993,63.947,63.947,0,0,1-1.605-9.315,33.763,33.763,0,0,1,.838-8.99c1.417-6.135,2.913-9.035,3.018-15.332l.046-3.379,9.383.48Z"/><path class="a" d="M378.087,242.968c-1.547,6.538-1.406,14.413-1.943,21.11-.139,1.732,1.057,2.787,2.312,1.586.6-.575,3.206-3.552,3.962-4.149,0,2.767.083,3.272.015,5.119-.216,5.9-.46,7.619-.866,11.543-.175,1.687-.1,3,.331,3.308,1.523,1.1,3.4,1.448,4.892.113a11.552,11.552,0,0,0,3.262-4.993,64.078,64.078,0,0,0,1.6-9.315,33.8,33.8,0,0,0-.837-8.99c-1.418-6.135-2.913-9.035-3.019-15.332l-.531-3.379-9.2.685Z"/><path class="a" d="M357.9,423.922a28.991,28.991,0,0,0,3.283,13.224l-21.055-.408.081-11.829"/><path class="a" d="M311.591,423.922a28.99,28.99,0,0,1-3.282,13.224l21.054-.408-.081-11.829"/><path class="b" d="M309.358,423.922a27.211,27.211,0,0,1-3.009,12.215,2.044,2.044,0,0,0,.717,2.736,2.021,2.021,0,0,0,2.737-.717,31.607,31.607,0,0,0,3.555-14.234,2,2,0,0,0-4,0Z"/><path class="b" d="M327.049,424.909l.081,11.829a2,2,0,0,0,4,0l-.081-11.829a2,2,0,0,0-4,0Z"/><path class="d" d="M289.9,464.289c-.109-.144-.214-.293-.312-.446a8.362,8.362,0,0,1-.553-7.006,22.939,22.939,0,0,1,3.595-6.273q5.205-7.107,11-13.756c1.506-1.727,3.209-3.528,5.461-3.953a3.388,3.388,0,0,0,1.684,3.553,7.95,7.95,0,0,0,4.061.917,22.54,22.54,0,0,0,15.777-6.279c-.026,4.745.022,6.325,0,11.073a9.945,9.945,0,0,1-.416,3.424c-.976,2.639-3.869,3.91-6.191,5.5-6.041,4.134-9.222,11.676-15.552,15.351a16.344,16.344,0,0,1-15.108.542A9.548,9.548,0,0,1,289.9,464.289Z"/><path class="b" d="M355.9,423.922a31.6,31.6,0,0,0,3.556,14.234,2,2,0,0,0,3.453-2.019,27.2,27.2,0,0,1-3.009-12.215,2,2,0,0,0-4,0Z"/><path class="b" d="M338.208,424.909l-.081,11.829a2,2,0,0,0,4,0l.081-11.829a2,2,0,0,0-4,0Z"/><path class="d" d="M379.359,464.289q.165-.216.312-.446a8.362,8.362,0,0,0,.553-7.006,22.939,22.939,0,0,0-3.595-6.273q-5.205-7.107-11-13.756c-1.506-1.727-3.209-3.528-5.461-3.953a3.388,3.388,0,0,1-1.684,3.553,7.95,7.95,0,0,1-4.061.917,22.54,22.54,0,0,1-15.777-6.279c.026,4.745-.022,6.325,0,11.073a9.945,9.945,0,0,0,.416,3.424c.976,2.639,3.869,3.91,6.191,5.5,6.041,4.134,9.222,11.676,15.552,15.351a16.344,16.344,0,0,0,15.108.542A9.548,9.548,0,0,0,379.359,464.289Z"/><path class="b" d="M291.625,463.28c-1.631-2.23-1.231-5.047-.048-7.4a52.091,52.091,0,0,1,5.491-7.931q3.03-3.954,6.266-7.746c1.712-2.014,3.554-4.809,6.288-5.423l-2.461-2.461a5.561,5.561,0,0,0,3.35,6.187c2.6,1.169,5.747.918,8.492.487a24.241,24.241,0,0,0,13.024-6.537l-3.415-1.414c-.02,4.044.157,8.12-.019,12.161-.088,2.008-1.12,3.183-2.727,4.266a56.784,56.784,0,0,0-4.729,3.255c-5.789,4.806-9.177,13.167-16.925,15.284-4.26,1.164-9.959.484-12.9-3.137a2.014,2.014,0,0,0-2.829,0,2.047,2.047,0,0,0,0,2.828c2.982,3.673,8.532,5.113,13.085,4.78A19.4,19.4,0,0,0,313.86,464.7c3.069-3.008,5.432-6.646,8.488-9.666a30.419,30.419,0,0,1,5.086-3.806,11.174,11.174,0,0,0,4.357-4.348c1.2-2.573.831-5.685.825-8.45,0-2.46-.016-4.92,0-7.379a2.022,2.022,0,0,0-3.414-1.415,20.231,20.231,0,0,1-8.821,4.983,19.441,19.441,0,0,1-5.753.705c-.946-.028-3.926-.28-3.605-1.932a2.028,2.028,0,0,0-2.461-2.461c-3.455.778-5.718,3.713-7.9,6.271q-3.8,4.455-7.336,9.116c-3.857,5.058-9.873,12.535-5.152,18.985a2.059,2.059,0,0,0,2.736.718A2.014,2.014,0,0,0,291.625,463.28Z"/><path class="b" d="M381.086,465.3c4.72-6.451-1.3-13.927-5.153-18.985q-3.549-4.653-7.336-9.116c-2.179-2.558-4.443-5.493-7.9-6.271a2.027,2.027,0,0,0-2.46,2.461c.305,1.572-2.457,1.886-3.394,1.926a19.34,19.34,0,0,1-5.964-.7,20.235,20.235,0,0,1-8.822-4.983,2.022,2.022,0,0,0-3.414,1.415c.011,2.23,0,4.461,0,6.692a44.039,44.039,0,0,0,.184,7.082c.773,4.787,5.507,6.193,8.744,8.971,3.27,2.806,5.669,6.434,8.563,9.593,3.076,3.357,6.852,6.047,11.422,6.834,5.17.89,11.735-.225,15.218-4.515a2.059,2.059,0,0,0,0-2.828,2.015,2.015,0,0,0-2.829,0c-2.55,3.141-7.352,4.09-11.192,3.508-4-.607-7.119-2.91-9.79-5.828-2.61-2.85-4.811-6.066-7.618-8.736a29.422,29.422,0,0,0-4.739-3.567c-1.32-.826-2.967-1.735-3.615-3.241a9.957,9.957,0,0,1-.349-3.831q0-1.72,0-3.442c.007-2.231.014-4.462,0-6.692l-3.414,1.414A24.235,24.235,0,0,0,350.254,439c2.665.418,5.7.667,8.253-.386a5.6,5.6,0,0,0,3.589-6.288l-2.461,2.461c2.67.6,4.458,3.275,6.133,5.242q3.308,3.883,6.422,7.927a54.328,54.328,0,0,1,5.391,7.742c1.243,2.395,1.736,5.282.051,7.585a2.014,2.014,0,0,0,.717,2.736A2.046,2.046,0,0,0,381.086,465.3Z"/><path class="a" d="M333.789,220.029c-9.812-.006-20.985-.015-32.16-.03-1.4,4.852-3.16,13.115-4.3,19.579-5.485,31.082-.183,62.809,2.2,93.228,2.468,31.549,3.977,63.1,6.445,94.648a143.154,143.154,0,0,0,27.8.2,143.643,143.643,0,0,0,27.855-.2c2.468-31.549,3.977-63.1,6.445-94.648,2.38-30.419,7.682-62.146,2.2-93.228-1.139-6.455-2.893-14.7-4.288-19.537h-.343S352.083,220.041,333.789,220.029Z"/><path class="b" d="M319.37,110.876a49.543,49.543,0,0,1-.684,6.547c-.055.355-.112.711-.2,1.059-.037.145-.086.284-.129.427-.1.34,0-.011.03-.07-.049.082-.1.174-.143.26s-.226.277.046-.033c-.053.06-.106.119-.161.177s-.119.114-.179.17c.065-.061.315-.191-.019.009a3.945,3.945,0,0,1-.691.362q-2.929,1.157-5.862,2.3c-.885.347-1.765.718-2.663,1.031a2.049,2.049,0,0,0-1.4,2.46,2.019,2.019,0,0,0,2.46,1.4c2.148-.749,4.252-1.654,6.369-2.486q1.089-.429,2.179-.855a6.653,6.653,0,0,0,2.889-1.86,6,6,0,0,0,1.227-2.672,48.5,48.5,0,0,0,.93-8.225,2,2,0,1,0-4,0Z"/><path class="b" d="M344.105,110.876a53.858,53.858,0,0,0,.881,7.956,6.124,6.124,0,0,0,.929,2.491,6.533,6.533,0,0,0,3.121,2.266c.093.038.188.079.282.113.241.088-.559-.237-.246-.1l.316.134,1.594.68,4.075,1.742c1.054.45,2.106.908,3.164,1.348a2.013,2.013,0,0,0,2.461-1.4,2.052,2.052,0,0,0-1.4-2.46c.96.4,0,0-.238-.1l-1.475-.63-3.808-1.628c-1.017-.434-2.033-.87-3.052-1.3a6.734,6.734,0,0,1-1.193-.58c.266.165-.115-.119-.2-.2-.163-.141.032.064.055.1a2.976,2.976,0,0,1-.17-.26c-.1-.172-.164-.395-.057-.072-.064-.194-.127-.386-.176-.586a35.344,35.344,0,0,1-.861-7.51,2,2,0,1,0-4,0Z"/><path class="g" d="M366.039,220.192c1.446,5.075,3.249,13.636,4.357,20.088,5.552.011,15.115-.649,20.053-.838-2.9-14.374-1.4-53.376-3.02-80.769a59.819,59.819,0,0,0-1.414-11.273,38.393,38.393,0,0,0-2.781-6.379c-2.18-3.6-5.672-6.2-9.2-8.511a89.811,89.811,0,0,0-14.448-7.531c-15.144,10.934-38.413,8.942-50.9-.326a91.983,91.983,0,0,0-15.217,7.857c-3.524,2.309-7.016,4.906-9.2,8.511A38.4,38.4,0,0,0,281.5,147.4a59.983,59.983,0,0,0-1.414,11.273c-1.618,27.393-.123,66.4-3.019,80.769,4.964.19,14.6.856,20.14.838,1.124-6.542,2.962-15.253,4.418-20.3,32.018.018,64.019.018,64.019.018"/><path class="b" d="M343.171,140.469a53.993,53.993,0,0,1-16.133-.151c-4.859-.751-9.833-2.005-14.066-4.588-2.2-1.344-4.216,2.114-2.019,3.454,4.629,2.824,10.088,4.263,15.41,5.049a60.311,60.311,0,0,0,17.871.093,2.013,2.013,0,0,0,1.4-2.46,2.051,2.051,0,0,0-2.46-1.4Z"/><path class="b" d="M278.2,242.968c-.124,5.478-2.08,10.425-3.149,15.735a37.329,37.329,0,0,0,.011,13.906c.691,4.106,1.856,8.946,5.8,11.188,2.077,1.18,5.821.734,7.123-1.49,1.078-1.844.41-4.49.2-6.489a135.007,135.007,0,0,1-.6-14.3l-3.415,1.414c1.471,1.227,2.551,2.863,3.962,4.149a3.311,3.311,0,0,0,4.2.537c1.468-1,1.58-2.751,1.464-4.363-.5-6.946-.379-13.991-1.952-20.815-.578-2.508-4.436-1.446-3.857,1.063,1.234,5.356,1.329,10.887,1.607,16.352.065,1.272.148,2.543.232,3.814,0-.028.008.862.022.875q-.1.307.263-.228l.849-.064c.007-.107-.443-.458-.525-.547A41.048,41.048,0,0,0,287,260.1a2.027,2.027,0,0,0-3.414,1.415c-.007,3.89.021,7.751.346,11.633.136,1.626.326,3.245.488,4.868.054.543.1,1.086.1,1.633a3.16,3.16,0,0,0-.012.6l-.029.121q-.132.462.284-.386a5.285,5.285,0,0,1-1.118.473,1.549,1.549,0,0,1-1.309-.539c-2.621-2.377-3.039-5.977-3.563-9.272a31.143,31.143,0,0,1,.393-12.045c1.222-5.244,2.912-10.188,3.035-15.631.058-2.575-3.942-2.574-4,0Z"/><path class="b" d="M376.158,242.437c-1.572,6.823-1.455,13.869-1.951,20.815-.116,1.613-.007,3.357,1.463,4.363a3.307,3.307,0,0,0,4.2-.537c1.4-1.3,2.491-2.922,3.961-4.149l-3.414-1.414c.007,4.34-.05,8.648-.468,12.974a28.724,28.724,0,0,0-.393,6.277c.328,2.567,3.1,3.892,5.522,3.661,2.717-.259,4.763-2.774,5.942-5.05a18.442,18.442,0,0,0,1.656-5.287,40.047,40.047,0,0,0,.66-13.037c-.841-6.142-3.395-11.827-3.537-18.085-.058-2.569-4.058-2.579-4,0,.108,4.743,1.357,9.1,2.544,13.649a32.593,32.593,0,0,1,1.062,12.865c-.463,3.164-.752,6.828-2.806,9.433-.444.565-1.115,1.454-1.881,1.546-.441.053-.737-.18-1.139-.28l-.341-.2.313.506c-.061.013-.07-.62-.071-.65a41.106,41.106,0,0,1,.481-5.481c.41-4.283.463-8.546.456-12.842A2.026,2.026,0,0,0,381,260.1a39.087,39.087,0,0,0-3.359,3.521c-.1.1-.544.441-.559.586.049-.484,1.167.292,1.089.411.066-.1-.024-.577-.014-.746.078-1.34.18-2.679.248-4.02.278-5.465.373-11,1.608-16.352.577-2.5-3.279-3.575-3.858-1.063Z"/><path class="b" d="M355.938,135.841a29.921,29.921,0,0,1-5.01,2.7l.478-.2q-.5.212-1.015.407a2.174,2.174,0,0,0-1.2.919,2.044,2.044,0,0,0-.2,1.541,2.022,2.022,0,0,0,.919,1.2,1.955,1.955,0,0,0,1.541.2,32.46,32.46,0,0,0,6.5-3.307,2.124,2.124,0,0,0,.919-1.195,2,2,0,0,0-2.938-2.259Z"/><path class="b" d="M301.561,222h64.08c2.574,0,2.578-4,0-4h-64.08c-2.573,0-2.578,4,0,4Z"/><path class="b" d="M332.629,277.471c-.428,4.681-.377,9.426-.414,14.121-.053,6.863-.025,13.727.017,20.589.058,9.672.164,19.343.149,29.015q-.024,16.1-.062,32.2-.033,18.056-.035,36.112,0,6.5.031,13c.011,2.072-.068,4.179.083,6.248a2.173,2.173,0,0,0,.611,1.628,2.061,2.061,0,0,0,2.828,0,2.014,2.014,0,0,0,0-2.829,2.2,2.2,0,0,1,.566,1.281,2.266,2.266,0,0,0-.015-.3c0-.332-.019-.664-.025-1-.022-1.141-.03-2.282-.038-3.423-.029-4.01-.035-8.019-.039-12.028q-.019-17.535.026-35.069.03-16.645.065-33.29c.016-8.94-.049-17.878-.114-26.817-.089-12.35-.4-24.767.209-37.107.039-.781.085-1.561.157-2.339a2.016,2.016,0,0,0-2-2,2.041,2.041,0,0,0-2,2Z"/><path class="b" d="M299.633,219.66a178.949,178.949,0,0,0-6.269,36.267c-.933,13.688-.253,27.429.883,41.083,1.13,13.588,2.638,27.138,3.66,40.736,1.054,14.023,1.94,28.058,2.825,42.093,1,15.863,2,31.726,3.238,47.573a2.069,2.069,0,0,0,2,2,154.426,154.426,0,0,0,26.485.307c2.551-.191,2.572-4.192,0-4a154.426,154.426,0,0,1-26.485-.307l2,2c-2.189-28.042-3.632-56.134-5.659-84.187-.981-13.583-2.349-27.122-3.581-40.683s-2.164-27.189-1.667-40.814a174.878,174.878,0,0,1,6.427-41c.7-2.481-3.157-3.54-3.857-1.063Z"/><path class="b" d="M364.11,220.723a173.542,173.542,0,0,1,6.189,36.17c.844,13.533.147,27.105-.986,40.6s-2.624,26.983-3.639,40.5c-1.052,14.023-1.937,28.058-2.821,42.093-1,15.78-1.992,31.56-3.223,47.324l2-2a154.416,154.416,0,0,1-26.484.307c-2.568-.192-2.556,3.809,0,4a154.416,154.416,0,0,0,26.484-.307,2.066,2.066,0,0,0,2-2c2.2-28.208,3.649-56.467,5.695-84.685.991-13.658,2.383-27.269,3.611-40.906,1.221-13.564,2.121-27.2,1.573-40.818a179.323,179.323,0,0,0-6.542-41.343c-.7-2.473-4.559-1.422-3.857,1.063Z"/><path class="b" d="M295.94,238.274c-6.3-.088-12.583-.584-18.876-.832l1.928,2.532c1.453-7.308,1.585-14.921,1.8-22.344.291-10.117.322-20.24.45-30.36.134-10.475.249-20.984,1.026-31.435.429-5.767,1.575-11.889,5.625-16.3,3.825-4.168,9.167-7.132,14.163-9.653,1.331-.671,2.678-1.308,4.036-1.922,1.115-.5,2.023-1.241,3.142-.506a37.607,37.607,0,0,0,6.047,3.157,49.668,49.668,0,0,0,14.153,3.532c9.882,1.034,20.4-.724,28.947-5.949a4.532,4.532,0,0,1,1.33-.784,3.34,3.34,0,0,1,1.691.543c1.36.614,2.71,1.251,4.042,1.923a77.957,77.957,0,0,1,8.1,4.7,31.768,31.768,0,0,1,6.353,5.259,22.481,22.481,0,0,1,3.889,7.284,32.866,32.866,0,0,1,1.5,9.193c.181,2.578.311,5.16.423,7.741.222,5.1.353,10.2.447,15.3.2,10.507.222,21.016.416,31.523a236.4,236.4,0,0,0,1.263,24.619c.185,1.5.4,3,.692,4.482l1.928-2.532c-6.293.248-12.577.744-18.876.832-2.572.036-2.579,4.036,0,4,6.3-.088,12.583-.584,18.876-.832a2.032,2.032,0,0,0,1.929-2.532c-1.426-7.172-1.5-15.132-1.694-22.667-.274-10.449-.3-20.9-.444-31.355-.076-5.394-.178-10.788-.358-16.179-.186-5.547-.312-11.158-1.006-16.668-.752-5.972-2.885-11.928-7.275-16.21-4.233-4.128-9.669-7.218-14.938-9.81-2.532-1.246-5.658-3.381-8.553-2.267a27.687,27.687,0,0,0-3.2,1.822,35.445,35.445,0,0,1-3.374,1.638,42.934,42.934,0,0,1-14.9,3.167,48.3,48.3,0,0,1-14.825-1.713,40.071,40.071,0,0,1-6.295-2.3c-.991-.467-1.963-.975-2.908-1.529a10.378,10.378,0,0,0-3.481-1.7,7.274,7.274,0,0,0-4.236.991c-1.434.637-2.858,1.3-4.264,1.994a78.678,78.678,0,0,0-8.168,4.656c-4.929,3.224-9.163,6.888-11.481,12.427a32.733,32.733,0,0,0-1.529,4.113,37.017,37.017,0,0,0-.877,5.191c-.356,2.984-.5,5.995-.65,9-.26,5.158-.411,10.321-.52,15.484-.225,10.677-.253,21.357-.43,32.035a258.958,258.958,0,0,1-1.239,26c-.138,1.176-.334,2.521-.605,3.886a2.032,2.032,0,0,0,1.929,2.532c6.293.248,12.577.744,18.876.832,2.575.036,2.576-3.964,0-4Z"/><path class="b" d="M364.523,159.156c.1.617.059.339.127.975.06.56.108,1.121.15,1.683.095,1.289.153,2.581.194,3.872.1,3.14.1,6.284.047,9.425-.1,6.455-.374,12.926-1.011,19.352a45.352,45.352,0,0,0-.377,5.4c.045,2.223.225,4.444.431,6.657.549,5.9,1.343,11.78,2.258,17.632a136.13,136.13,0,0,0,3.3,16.657c.71,2.47,4.571,1.42,3.857-1.063a125.206,125.206,0,0,1-2.933-14.346c-.954-5.813-1.764-11.653-2.353-17.514a57.212,57.212,0,0,1-.327-12.07c.692-6.228.971-12.512,1.115-18.774s.358-12.731-.624-18.946a2.015,2.015,0,0,0-2.46-1.4,2.05,2.05,0,0,0-1.4,2.461Z"/><path class="b" d="M299.43,158.092a96.759,96.759,0,0,0-.672,16.324c.087,6.5.354,13.012.967,19.484a50.02,50.02,0,0,1,.429,5.6c-.036,2.166-.223,4.331-.433,6.486-.559,5.725-1.376,11.426-2.309,17.1a145.158,145.158,0,0,1-3.4,16.657c-.713,2.478,3.145,3.537,3.857,1.063a133.432,133.432,0,0,0,3.013-14.346c1.028-5.978,1.911-11.988,2.582-18.017.445-3.992.985-8.105.517-12.116-.719-6.161-1-12.385-1.156-18.583-.093-3.621-.125-7.246-.041-10.867.036-1.526.092-3.051.193-4.574.041-.618.09-1.237.151-1.853q.042-.411.091-.822c0,.039.018-.149.069-.471a2.064,2.064,0,0,0-1.4-2.461,2.015,2.015,0,0,0-2.46,1.4Z"/><path class="a" d="M234.651,124.114a4.1,4.1,0,0,1,3.28-.96,3.873,3.873,0,0,1,2.782,1.85,5.471,5.471,0,0,1,.573,2.2,16.4,16.4,0,0,1-1.672,8.692,10.426,10.426,0,0,1-2.695,3.537,6.9,6.9,0,0,1-3.213,1.448s-.2.031-.552.093c-.263.984-.559,1.812-.7,2.252-.922,2.5-6.024,11.081-12.482,14.394a39.345,39.345,0,0,0,.588,5.48c.344,1.967.236,3.725,2.971,4.713.181.065,4.855,2.184,5.131,2.3,0,0-1.206,15.375-21.65,15.375s-20.531-15.569-20.531-15.569c.53-.18,4.98-2.04,5.16-2.1,2.74-.99,2.63-2.75,2.97-4.72a36.945,36.945,0,0,0,.569-5.119,23.781,23.781,0,0,1-8.227-6.562,27.882,27.882,0,0,1-5.314-10.375l-1.048-.16a6.907,6.907,0,0,1-3.213-1.448,10.426,10.426,0,0,1-2.695-3.537,16.4,16.4,0,0,1-1.672-8.692,5.471,5.471,0,0,1,.573-2.2,3.875,3.875,0,0,1,2.783-1.85,4.1,4.1,0,0,1,3.279.96S178.5,96.572,205.17,96.572C234.5,96.572,234.651,124.114,234.651,124.114Z"/><path class="a" d="M235.538,172.784c-1.689-.875-3.407-1.7-5.108-2.459a3.015,3.015,0,0,0-3.246.5c-3.11,2.78-10.465,8.1-19.78,8.1a27.129,27.129,0,0,1-19.908-8.141,3,3,0,0,0-3.346-.616,88.418,88.418,0,0,0-14.471,8.006c-4.414,3.085-7.454,6.4-8.638,9.05-4.455,9.96-5.153,22.167-5.835,33.545-.65,10.849-1.182,21.705-1.692,32.561-.413,8.8-.817,17.592-1.259,26.386a2.05,2.05,0,0,0,1.8,2.138l17.715,1.541q.328-3.069.576-6.108l.833.014c15.777.257,52.878.107,68.655.363l.029,0q.214,2.856.543,5.738l.077-.007,17.714-1.543a2.05,2.05,0,0,0,1.8-2.138c-.442-8.794-.846-17.59-1.259-26.386-.51-10.856-1.042-21.712-1.692-32.561-.682-11.378-1.38-23.585-5.835-33.545-1.184-2.648-4.224-5.965-8.638-9.05A81.268,81.268,0,0,0,235.538,172.784Z"/><path class="a" d="M250.947,282.789a154.92,154.92,0,0,0-3.436,20.324,1.706,1.706,0,0,0,2.875,1.364c.537-.514,1.345-1.281,1.726-1.724a13.8,13.8,0,0,1,1.818-1.987,16.842,16.842,0,0,1,.38,4.565c-.194,5.282.084,4.98-1.141,10.339-.338,1.479-.088,2.681.3,2.959,2.451,1.775,5.376,0,6.817-1.881a11.606,11.606,0,0,0,1.554-2.852c2.053-5.245,1.352-10.286.084-15.774s-3.082-10.926-3.176-16.557"/><path class="a" d="M163.476,282.447a160.022,160.022,0,0,1,3.368,20.666,1.707,1.707,0,0,1-2.876,1.364c-.537-.514-1.345-1.281-1.726-1.724a13.858,13.858,0,0,0-1.817-1.987,16.848,16.848,0,0,0-.381,4.565c.194,5.282-.083,4.98,1.142,10.339.338,1.479.088,2.681-.3,2.959-2.452,1.775-5.376,0-6.817-1.881a11.609,11.609,0,0,1-1.555-2.852c-2.053-5.245-1.352-10.286-.083-15.774s3.081-10.926,3.175-16.557"/><path class="b" d="M248.383,284.79q-1.058,4.507-1.777,9.083a61.775,61.775,0,0,0-1.095,9.24,3.749,3.749,0,0,0,4.532,3.735c2.351-.562,3.581-3.209,5.3-4.668L252,301.3a34,34,0,0,1,.074,9.7c-.263,2.024-1.1,4.045-1.061,6.093a4.066,4.066,0,0,0,3.724,4.178c4.955.815,8.221-4.066,9.484-8.147,1.481-4.787.889-9.816-.168-14.62-1.235-5.62-3.164-11.136-3.31-16.936-.064-2.57-4.064-2.579-4,0a59.6,59.6,0,0,0,2.288,13.206c1.052,4.123,2.209,8.336,2.094,12.628-.088,3.278-1.047,8.464-4.58,9.793a2.259,2.259,0,0,1-1.01.164,3.177,3.177,0,0,0-.466-.1l-.121-.061q-.4-.245.147.422a10.624,10.624,0,0,1,.208-2.328,38.581,38.581,0,0,0,.554-15.053c-.285-1.609-2.309-1.759-3.343-.882a18.676,18.676,0,0,0-1.817,1.986c-.162.184-1.763,1.529-1.726,1.725-.021-.11.506-.164.394-.084l.124.183a.881.881,0,0,0,.06-.535c.118-1.131.208-2.264.336-3.394a115.991,115.991,0,0,1,2.354-13.38c.587-2.5-3.269-3.573-3.857-1.063Z"/><path class="b" d="M162.114,285.853a115.78,115.78,0,0,1,2.355,13.38c.128,1.13.228,2.262.335,3.394a.837.837,0,0,0,.05.51c.031.092.076.04.135-.158-.083-.06.387-.041.393.084,0-.106-.711-.683-.784-.755-.323-.315-.642-.632-.941-.97a19,19,0,0,0-1.818-1.986c-1.033-.877-3.058-.727-3.343.882a41.177,41.177,0,0,0-.315,9.545,27.978,27.978,0,0,0,.545,3.993c.184.908.483,1.828.6,2.747.034.277-.03.572.007.842.114.845.06-.442.2-.229a3.483,3.483,0,0,1-.608.22c-1.517.246-2.987-1.3-3.691-2.454a14.536,14.536,0,0,1-1.883-5.771c-.507-4.222.5-8.46,1.515-12.53,1.236-4.953,2.621-9.894,2.75-15.032.065-2.575-3.935-2.574-4,0-.253,10.065-6,19.641-3.922,29.822.874,4.278,3.445,9.359,8.3,9.915,1.962.224,4.486-.542,5.126-2.624.662-2.158-.26-4.474-.656-6.6a27.511,27.511,0,0,1-.345-4.353,31.6,31.6,0,0,1,.238-6.428l-3.342.882c1.678,1.424,2.9,4.035,5.168,4.645a3.764,3.764,0,0,0,4.665-3.712,61.769,61.769,0,0,0-1.059-9c-.479-3.131-1.09-6.239-1.813-9.323-.588-2.506-4.446-1.445-3.858,1.063Z"/><path class="a" d="M228.18,429.846a25.156,25.156,0,0,0,2.846,11.468l-18.258-.354.071-10.258"/><path class="a" d="M188.022,429.846a25.13,25.13,0,0,1-2.846,11.468l18.258-.354-.07-10.258"/><path class="b" d="M185.82,429.846a27.019,27.019,0,0,1-.181,2.872c-.031.245-.034.272-.011.08-.02.135-.041.271-.063.406-.033.2-.068.406-.107.608-.088.471-.191.94-.306,1.406a24.89,24.89,0,0,1-.852,2.749c-.072.193-.147.384-.223.575-.092.223-.1.254-.035.092-.054.126-.11.251-.166.376-.2.438-.409.869-.629,1.3a2,2,0,0,0,3.454,2.019,27.7,27.7,0,0,0,3.119-12.478,2,2,0,0,0-4,0Z"/><path class="b" d="M201.161,430.7l.071,10.258a2,2,0,0,0,4,0l-.071-10.258a2,2,0,0,0-4,0Z"/><path class="b" d="M226.18,429.846a27.7,27.7,0,0,0,3.119,12.478,2.015,2.015,0,0,0,2.737.717,2.046,2.046,0,0,0,.717-2.736c-.22-.426-.432-.857-.629-1.3-.056-.125-.112-.25-.166-.376.068.162.057.131-.035-.092-.075-.191-.151-.382-.223-.575a25.325,25.325,0,0,1-.852-2.749c-.115-.466-.218-.935-.306-1.406q-.057-.3-.107-.608c-.022-.135-.043-.271-.063-.406q.036.288-.011-.08a26.758,26.758,0,0,1-.181-2.872,2,2,0,0,0-4,0Z"/><path class="b" d="M210.839,430.7l-.071,10.258a2,2,0,0,0,4,0l.071-10.258a2,2,0,0,0-4,0Z"/><path class="d" d="M169.211,464.852c-.095-.125-.186-.254-.271-.387a7.249,7.249,0,0,1-.479-6.075,19.875,19.875,0,0,1,3.117-5.44q4.513-6.163,9.54-11.929c1.306-1.5,2.782-3.06,4.736-3.428a2.937,2.937,0,0,0,1.46,3.081,6.888,6.888,0,0,0,3.521.8,19.545,19.545,0,0,0,13.682-5.445c-.022,4.115.019,5.485,0,9.6a8.615,8.615,0,0,1-.361,2.97c-.846,2.288-3.355,3.39-5.369,4.768-5.238,3.585-8,10.125-13.486,13.313a14.17,14.17,0,0,1-13.1.469A8.257,8.257,0,0,1,169.211,464.852Z"/><path class="d" d="M246.789,464.852q.144-.187.271-.387a7.253,7.253,0,0,0,.48-6.075,19.9,19.9,0,0,0-3.118-5.44q-4.513-6.163-9.54-11.929c-1.306-1.5-2.782-3.06-4.735-3.428a2.94,2.94,0,0,1-1.46,3.081,6.894,6.894,0,0,1-3.522.8,19.547,19.547,0,0,1-13.682-5.445c.022,4.115-.019,5.485,0,9.6a8.64,8.64,0,0,0,.361,2.97c.846,2.288,3.355,3.39,5.369,4.768,5.238,3.585,8,10.125,13.486,13.313a14.17,14.17,0,0,0,13.1.469A8.257,8.257,0,0,0,246.789,464.852Z"/><path class="c" d="M207.822,432.806c7.732,1.608,25.838,1.8,29.9.446.366-6.063,1.036-63.415,2.672-90.58,1.376-22.869,2.46-50.308,3.8-64.631-15.8-.241-57.328-.5-73.093-.754,1.359,14.217,2.872,42.318,4.26,65.385,1.635,27.165,2.306,84.517,2.672,90.58,4.061,1.354,19.853,1.45,29.272-.35"/><path class="a" d="M207.822,432.806c7.732,1.608,25.838,1.8,29.9.446.081-1.344.177-5.206.3-10.7-2.725,0-10.018.231-15.171.231-1.464,0-12.32-.257-14.589-.257h-1.133c-2.27,0-13.125.257-14.589.257-3.494,0-11.473-.4-14.815-.457.135,5.616.233,9.565.315,10.927,4.061,1.354,19.853,1.45,29.272-.35"/><path class="b" d="M170.938,463.842c-3.061-4.375,2.28-9.85,4.8-13.13q2.608-3.393,5.39-6.649c1.433-1.684,2.972-4.018,5.255-4.542l-2.46-2.46a5.107,5.107,0,0,0,3.1,5.695c2.255,1,4.96.806,7.341.443a21.347,21.347,0,0,0,11.564-5.761l-3.415-1.414c-.018,3.545.184,7.141-.023,10.68a4.264,4.264,0,0,1-2.318,3.4,45.983,45.983,0,0,0-4.11,2.842c-4.982,4.158-7.918,11.394-14.622,13.175-3.591.954-8.345.348-10.819-2.681-1.629-2-4.444.849-2.828,2.828,2.616,3.2,7.423,4.481,11.412,4.231a16.987,16.987,0,0,0,10.8-4.945c2.747-2.639,4.827-5.876,7.535-8.551,2.513-2.482,6.622-3.757,8.2-7.077,1.056-2.215.774-4.844.77-7.23,0-2.224-.015-4.447,0-6.67a2.022,2.022,0,0,0-3.414-1.414,17.288,17.288,0,0,1-7.361,4.2,16.685,16.685,0,0,1-4.907.654c-.68-.013-3.271-.133-3.053-1.344a2.028,2.028,0,0,0-2.46-2.461c-3,.688-4.965,3.162-6.866,5.389q-3.343,3.916-6.46,8.02c-3.489,4.57-8.58,10.974-4.512,16.788C168.949,467.955,172.418,465.958,170.938,463.842Z"/><path class="b" d="M170.279,277.287c.764,11.8,1.119,23.626,1.618,35.438.53,12.561,1.29,25.108,1.871,37.665.489,10.547.8,21.1,1.072,31.656q.411,15.734.711,31.47c.13,6.291.186,12.591.443,18.879.012.285.024.571.041.857a2.076,2.076,0,0,0,1.468,1.929,23.922,23.922,0,0,0,5.358.83c2.593.209,5.2.264,7.8.249a96.347,96.347,0,0,0,17.177-1.43c2.527-.474,1.457-4.33-1.064-3.857a90.383,90.383,0,0,1-16.113,1.287c-2.463.014-4.93-.037-7.387-.217a18.414,18.414,0,0,1-4.708-.72l1.468,1.929c-.324-5.475-.3-10.986-.417-16.468q-.315-15.288-.672-30.576c-.267-10.76-.567-21.52-1.021-32.274-.505-11.973-1.279-23.934-1.8-35.907-.545-12.5-.949-25.017-1.651-37.514q-.09-1.613-.194-3.226c-.166-2.556-4.167-2.574-4,0Z"/><path class="b" d="M239.831,277.672c-.513,11.448-.335,22.933-.481,34.389-.162,12.613-.744,25.182-1.337,37.778-.5,10.619-.811,21.247-1.089,31.874q-.414,15.832-.716,31.668c-.131,6.336-.187,12.681-.446,19.014-.012.285-.024.571-.041.857l1.468-1.929a17.865,17.865,0,0,1-4.9.665c-2.711.162-5.43.188-8.145.152a85.266,85.266,0,0,1-15.794-1.262c-2.513-.512-3.588,3.342-1.064,3.857a90.919,90.919,0,0,0,16.858,1.4c2.8.037,5.609.01,8.405-.168a23.886,23.886,0,0,0,5.7-.791,2.075,2.075,0,0,0,1.468-1.929c.326-5.518.305-11.07.419-16.6q.318-15.391.678-30.781c.27-10.842.574-21.685,1.038-32.521.514-12.025,1.212-24.025,1.416-36.064.208-12.208.092-24.426.449-36.631q.045-1.494.11-2.988c.115-2.573-3.885-2.568-4,0Z"/><path class="b" d="M248.516,465.861c4.069-5.815-1.024-12.219-4.512-16.788q-3.124-4.095-6.46-8.02c-1.9-2.228-3.867-4.7-6.866-5.389a2.028,2.028,0,0,0-2.46,2.461c.217,1.206-2.368,1.331-3.053,1.344a16.756,16.756,0,0,1-4.907-.654,17.251,17.251,0,0,1-7.361-4.2,2.022,2.022,0,0,0-3.414,1.414c.01,1.933,0,3.865,0,5.8a32.844,32.844,0,0,0,.212,6.481c.814,4.069,4.906,5.292,7.69,7.7,2.885,2.5,4.989,5.732,7.584,8.506a17.627,17.627,0,0,0,10.1,5.786c4.5.682,10.11-.324,13.14-4.034a2.057,2.057,0,0,0,0-2.828,2.014,2.014,0,0,0-2.828,0c-2.178,2.666-6.242,3.47-9.513,2.963-3.408-.528-6.042-2.5-8.315-4.984s-4.2-5.3-6.659-7.626a25.422,25.422,0,0,0-4.007-3.016c-1.1-.691-2.552-1.454-3.108-2.711a7.972,7.972,0,0,1-.293-3.147q0-1.462,0-2.925c.006-1.99.013-3.979,0-5.968l-3.414,1.414a21.341,21.341,0,0,0,11.563,5.761,13.835,13.835,0,0,0,7.1-.342,5.146,5.146,0,0,0,3.34-5.8l-2.46,2.46c2.222.51,3.7,2.721,5.1,4.36q2.854,3.347,5.544,6.831c2.522,3.28,7.863,8.755,4.8,13.13C243.583,465.956,247.05,467.957,248.516,465.861Z"/><path class="b" d="M206,317.448c-.43,4.737-.383,9.531-.382,14.283,0,5.622.08,11.244.136,16.866.065,6.587.029,13.175.015,19.763-.036,17.255-.091,34.511-.064,51.766,0,3.1.01,6.2.037,9.305.011,1.212-.372,3.87.666,4.789,1.921,1.7,4.76-1.117,2.828-2.828a2.242,2.242,0,0,1,.569,1.306,1.15,1.15,0,0,0-.011-.184c0-.23-.015-.464-.02-.695-.018-.756-.024-1.512-.031-2.267-.024-2.661-.03-5.321-.036-7.981q-.024-12.264.007-24.529c.022-15.074.165-30.151.067-45.225-.04-6.112-.142-12.223-.16-18.336-.015-5.332-.1-10.717.379-16.033a2.014,2.014,0,0,0-2-2,2.042,2.042,0,0,0-2,2Z"/><path class="b" d="M187.008,171.847c1.615-.563,3.181-1.293,4.764-1.94a8.027,8.027,0,0,0,3.118-1.817,6.611,6.611,0,0,0,1.52-3.649,63.105,63.105,0,0,0,.767-6.472,2.014,2.014,0,0,0-2-2,2.043,2.043,0,0,0-2,2,47.037,47.037,0,0,1-.684,5.8,8.153,8.153,0,0,1-.211,1c-.023.079-.048.158-.076.236q-.112.3.063-.134c-.051.019-.135.265-.175.329s-.09.143-.139.211q.276-.348.062-.1c-.094.083-.559.419-.135.152-.185.117-.372.224-.561.333-.485.279.361-.129-.222.1-1.728.669-3.405,1.487-5.154,2.1a2,2,0,0,0,1.063,3.857Z"/><path class="b" d="M217.967,157.643a51.1,51.1,0,0,0,.7,6.205,8.1,8.1,0,0,0,1.116,3.61,5.73,5.73,0,0,0,1.938,1.731,7,7,0,0,0,1.291.559c.023.007-.623-.272-.363-.153.059.028.119.053.178.079.862.381,1.72.772,2.58,1.159.905.408,1.808.823,2.724,1.209a2.005,2.005,0,0,0,2.46-1.4,2.063,2.063,0,0,0-1.4-2.46c1,.422-.214-.106-.462-.218l-1.662-.748c-.991-.447-1.976-.917-2.985-1.324-.106-.043-.361-.16-.1-.036-.214-.1-.409-.225-.613-.342q-.28-.2.032.032c-.074-.064-.144-.13-.212-.2s-.126-.135-.185-.207c.159.21.2.255.117.133-.009-.036-.242-.39-.221-.4.114.281.132.32.056.118-.028-.083-.054-.165-.078-.249a8.413,8.413,0,0,1-.207-.983,47.244,47.244,0,0,1-.7-6.118,2,2,0,0,0-4,0Z"/><path class="b" d="M171.789,281.4l-16.236-1.414c-.4-.035-.8-.05-1.195-.1a1.91,1.91,0,0,1-.241-.021c.144.037.146-.033.154-.051a7.058,7.058,0,0,0,.107-2.081q.075-1.494.147-2.987.133-2.737.264-5.476.521-10.926,1.029-21.854.522-10.856,1.124-21.707c.38-6.68.685-13.384,1.5-20.029.73-5.965,1.808-12.508,4.579-17.913,2.6-5.066,8.242-8.467,12.994-11.216q2.028-1.171,4.113-2.238a31.23,31.23,0,0,1,4.781-2.28c1.283-.393,2.757,1.674,3.707,2.434a28.91,28.91,0,0,0,12.506,5.853,30.143,30.143,0,0,0,17.747-1.852,34.612,34.612,0,0,0,6.316-3.514c.847-.595,1.672-1.225,2.471-1.882.735-.6,1.2-1.212,2.2-.836a59.911,59.911,0,0,1,8.937,4.615,50.412,50.412,0,0,1,7.909,5.5,18.793,18.793,0,0,1,4.691,5.65,42.674,42.674,0,0,1,2.864,8.653,114.837,114.837,0,0,1,2.507,19.264c.464,7.039.837,14.086,1.2,21.132q.558,10.878,1.05,21.76.257,5.477.516,10.953.119,2.489.24,4.978l.135,2.738a15.33,15.33,0,0,0,.083,2.409c-.006-.025.4-.078-.051-.007s-.9.079-1.343.117l-4.3.375-9.848.858-1.938.169c-2.545.222-2.568,4.224,0,4l16.883-1.471c1.519-.132,2.925-.421,3.876-1.778s.73-2.86.652-4.423q-.149-2.986-.292-5.974-.55-11.43-1.077-22.862-.553-11.6-1.195-23.188c-.4-6.976-.712-13.98-1.61-20.914-.831-6.422-2.028-13.224-5.013-19.047-2.754-5.371-8.5-9.131-13.528-12.122a88.688,88.688,0,0,0-9.531-4.936,5.283,5.283,0,0,0-4.828-.028,21.592,21.592,0,0,0-2.577,2.033,29.263,29.263,0,0,1-13.9,6.062A25.933,25.933,0,0,1,194.2,173.5a24.185,24.185,0,0,1-4.345-3.219,9.924,9.924,0,0,0-2.223-1.831,5.5,5.5,0,0,0-4.893.19c-6.461,2.863-13.021,6.4-18.291,11.168a21.246,21.246,0,0,0-5,6.183,46.708,46.708,0,0,0-3.165,9.186,117.314,117.314,0,0,0-2.723,20.305c-.493,7.352-.878,14.712-1.253,22.07-.4,7.752-.755,15.5-1.118,23.258q-.269,5.726-.542,11.451-.132,2.738-.268,5.476c-.086,1.735-.3,3.431.965,4.828a5.125,5.125,0,0,0,3.679,1.383l4.169.364,10.5.914,2.1.183c2.564.224,2.549-3.778,0-4Z"/><path class="b" d="M173.176,279.309c18.537.3,37.08.15,55.619.244,4.345.022,8.691.05,13.036.119,2.575.042,2.575-3.958,0-4-18.537-.3-37.081-.15-55.619-.244-4.345-.022-8.691-.049-13.036-.119-2.575-.041-2.575,3.959,0,4Z"/><path class="a" d="M208.257,422.525c2.269,0,13.125.257,14.589.257,3.775,0,12.217-.464,14.959-.464"/><path class="b" d="M208.257,424.525c4.584.008,9.168.179,13.751.247,5.269.078,10.53-.437,15.8-.454,2.573-.008,2.578-4.008,0-4-5.267.017-10.528.532-15.8.454-4.583-.068-9.167-.239-13.751-.247-2.574,0-2.578,4,0,4Z"/><path class="a" d="M207.124,422.525c-2.27,0-13.125.257-14.589.257-3.775,0-12.217-.464-14.959-.464"/><path class="b" d="M207.124,420.525c-4.584.008-9.168.179-13.751.247-5.27.078-10.53-.437-15.8-.454-2.574-.008-2.578,3.992,0,4,5.267.017,10.527.532,15.8.454,4.583-.068,9.167-.239,13.751-.247,2.573,0,2.578-4,0-4Z"/><path class="b" d="M170.275,208.522c.1.541-.027-.472,0-.041.012.22.043.441.061.662.05.618.084,1.237.115,1.856.09,1.758.146,3.518.2,5.277.142,4.917.223,9.835.295,14.753.119,8.237.212,16.475.235,24.713a254.89,254.89,0,0,1-1.486,28.373,2.012,2.012,0,0,0,2,2,2.045,2.045,0,0,0,2-2,312.016,312.016,0,0,0,1.435-36.453c-.082-10.023-.178-20.049-.443-30.07a68.452,68.452,0,0,0-.549-10.133,2.018,2.018,0,0,0-2.46-1.4,2.043,2.043,0,0,0-1.4,2.46Z"/><path class="b" d="M213.975,209.081c-3.284.442-2.509,5.172-2.484,7.524a39.823,39.823,0,0,0,.7,8.23,5.968,5.968,0,0,0,4.936,5.2,23.167,23.167,0,0,0,11.608.466,13.912,13.912,0,0,0,4.426-1.82,6.613,6.613,0,0,0,2.43-3.468,28.2,28.2,0,0,0,1.24-8.959,16.412,16.412,0,0,0-.108-4.447,3.86,3.86,0,0,0-3.8-2.8c-1.821-.045-3.649,0-5.47,0l-12.943,0c-2.574,0-2.578,4,0,4l8.934,0h8.543c.26,0,.529.02.788,0,.067,0,.223.032.28,0,.162-.093-.284-.061-.161-.147-.01.007.006-.13-.035.126a2.461,2.461,0,0,0,0,.354c0,.29,0,.58,0,.871q0,.95-.023,1.9c-.031,1.315-.1,2.63-.231,3.939a18.566,18.566,0,0,1-.64,3.4,5.986,5.986,0,0,1-.436,1.149,4.109,4.109,0,0,1-.372.617c.144-.181-.079.044-.135.081-2.415,1.581-5.458,1.8-8.259,1.646a18.962,18.962,0,0,1-4.572-.769,5.885,5.885,0,0,1-1.411-.6c-.331-.205.066.048-.148-.119-.057-.044-.141-.216-.02-.012.164.275-.086-.171-.088-.176-.033-.074-.075-.147-.111-.22-.133-.264.107.286,0-.012-.09-.247-.166-.5-.235-.751a14.967,14.967,0,0,1-.336-1.652,36.179,36.179,0,0,1-.29-3.627c-.055-1.345-.067-2.692-.065-4.039,0-.557,0-1.115.008-1.673l0-.673a3.126,3.126,0,0,0,0-.349c-.083-.706.435.54-.457.661a2.014,2.014,0,0,0,1.4-2.461A2.054,2.054,0,0,0,213.975,209.081Z"/><path class="b" d="M240.29,207.459a58.7,58.7,0,0,0-.5,8.5c-.146,4.932-.228,9.866-.3,14.8q-.183,12.471-.24,24.945a256.426,256.426,0,0,0,1.184,28.414,2.059,2.059,0,0,0,2,2,2.012,2.012,0,0,0,2-2c-1.305-12.034-1.232-24.148-1.134-36.236.08-9.983.177-19.968.436-29.948.055-2.135.116-4.271.215-6.405.034-.707.069-1.415.122-2.122.019-.269.049-.537.068-.806.044-.6-.086.461.009-.076a2.056,2.056,0,0,0-1.4-2.46,2.018,2.018,0,0,0-2.461,1.4Z"/><path class="d" d="M237.721,110.6a29.125,29.125,0,0,0-3.935-10.725,28.628,28.628,0,0,0-3.979-5.033c-.6-.612-1.526-1.507-2.153-2.052a35.763,35.763,0,0,0-5.235-3.472,30.933,30.933,0,0,0-4.572-2.05,32.576,32.576,0,0,0-10.839-1.777,30.952,30.952,0,0,0-18.363,5.651,29.508,29.508,0,0,0-12.738,23.279,51.413,51.413,0,0,0,.662,8.544l.02.169a4.031,4.031,0,0,1,3,.975,9.682,9.682,0,0,0,1.2.01,3.938,3.938,0,0,0,3.419-2.588c3.713-7.713,9.737-13.791,19.738-16.292a3.964,3.964,0,0,1,2.86.065c1.17.7.769,2.248,1.752,3.105,1.037.9,2.916.542,4.336.055a51.347,51.347,0,0,0,6.285-2.629l.442.135c1.529.471,3.415,2.249,4.5,3.5a26.134,26.134,0,0,1,5.628,12.155,3.517,3.517,0,0,0,1.344,2.648,3.379,3.379,0,0,0,3.6-.166,4.062,4.062,0,0,1,2.853-.991l.026-.155a40.219,40.219,0,0,0,.53-8.542A32.97,32.97,0,0,0,237.721,110.6Z"/><path class="b" d="M239.508,123.492c1.387-8.536.537-17.575-4.224-24.993a33.024,33.024,0,0,0-19.328-13.9,35.317,35.317,0,0,0-24.476,2.481,32.873,32.873,0,0,0-13.569,12.935c-4.1,7.261-4.576,15.4-3.271,23.48a2.016,2.016,0,0,0,2.461,1.4,2.048,2.048,0,0,0,1.4-2.46c-.991-6.134-.858-12.519,1.774-18.254a28.855,28.855,0,0,1,10.46-12.047c12.415-8.095,29.966-5.344,39.386,6.026,5.577,6.73,6.9,15.844,5.534,24.272a2.061,2.061,0,0,0,1.4,2.46,2.015,2.015,0,0,0,2.46-1.4Z"/><path class="b" d="M219.968,103.163a48.04,48.04,0,0,1-5.824,2.725,21.339,21.339,0,0,1-2.814.947,3.653,3.653,0,0,1-.918.125c-.189,0-.6-.136-.509-.043-.372-.381-.456-1.483-.733-1.967a3.854,3.854,0,0,0-2.136-1.725c-1.792-.585-3.812.085-5.534.622a30.723,30.723,0,0,0-15.962,11.492,34.191,34.191,0,0,0-2.751,4.574c-.43.854-1.325,2.809-2.6,2.135-2.273-1.2-4.3,2.248-2.018,3.454a5.52,5.52,0,0,0,5.038-.012c1.668-.854,2.438-2.426,3.26-4.008a29.406,29.406,0,0,1,5.679-7.736,25.583,25.583,0,0,1,8.591-5.413q1.27-.481,2.579-.856c.584-.167,1.794-.721,2.4-.469.253.105-.094-.106.01,0a1.092,1.092,0,0,1,.1.322c.121.375.227.74.383,1.1a3.973,3.973,0,0,0,2.115,2.137c2.094.894,4.432.1,6.438-.653a55.472,55.472,0,0,0,7.22-3.3c2.259-1.236.243-4.691-2.019-3.454Z"/><path class="b" d="M219.1,107.9c1.65.565,3.321,2.514,4.392,4.013a24.839,24.839,0,0,1,3.456,6.677c.717,2.189.67,4.854,2.242,6.655,1.659,1.9,4.5,1.707,6.523.592,2.255-1.242.239-4.7-2.019-3.454a2.011,2.011,0,0,1-1.11.331c.274.022-.345-.1-.349-.1.193.073-.081-.048-.169-.089q-.174-.108.166.127c-.118-.132-.138-.145-.058-.038.063.225-.135-.211-.167-.27a4.215,4.215,0,0,1-.323-1.245,25.918,25.918,0,0,0-2.232-6.94c-1.849-3.935-4.968-8.633-9.289-10.113A2,2,0,1,0,219.1,107.9Z"/><path class="b" d="M236.065,125.528a2.027,2.027,0,0,1,2.855.377,4.433,4.433,0,0,1,.42,2.256,13.688,13.688,0,0,1-.189,2.8c-.607,3.326-2.276,7.329-5.977,7.993a2.018,2.018,0,0,0-1.4,2.46,2.045,2.045,0,0,0,2.461,1.4c5.829-1.045,8.612-7.616,9.051-12.9.229-2.75-.024-5.845-2.4-7.619a6.13,6.13,0,0,0-7.653.407,2.015,2.015,0,0,0,0,2.828,2.043,2.043,0,0,0,2.828,0Z"/><path class="b" d="M231.664,137.832a15.293,15.293,0,0,1-.895,4.125c-.081.246-.175.49-.247.739-.039.134-.2.463.043-.082-.13.292-.264.581-.408.866a35.151,35.151,0,0,1-3.03,4.87c-2.618,3.591-6.188,7.389-10.634,8.432-2.5.587-1.445,4.445,1.063,3.857,5.449-1.278,9.672-5.728,12.877-10.068,2.764-3.742,5.038-7.984,5.231-12.739.1-2.574-3.9-2.569-4,0Z"/><path class="b" d="M181.057,122.7a6.134,6.134,0,0,0-7.654-.407c-2.377,1.768-2.627,4.874-2.4,7.619.439,5.284,3.223,11.855,9.052,12.9a2.057,2.057,0,0,0,2.46-1.4,2.017,2.017,0,0,0-1.4-2.46c-3.7-.664-5.37-4.667-5.977-7.993a13.437,13.437,0,0,1-.191-2.642,5.14,5.14,0,0,1,.356-2.306,2.011,2.011,0,0,1,2.921-.486,2.056,2.056,0,0,0,2.829,0,2.016,2.016,0,0,0,0-2.828Z"/><path class="b" d="M178.824,137.642a32.039,32.039,0,0,0,6.836,15.338c3.855,4.564,8.959,7.84,14.965,8.489a2.012,2.012,0,0,0,2-2,2.045,2.045,0,0,0-2-2c-5.049-.545-9.257-3.806-12.388-7.619a28.365,28.365,0,0,1-5.556-13.271,2.016,2.016,0,0,0-2.46-1.4,2.044,2.044,0,0,0-1.4,2.46Z"/><path class="b" d="M201.982,146.783a11.645,11.645,0,0,0,5.609,1.311,9.266,9.266,0,0,0,5.784-1.759,2,2,0,0,0,.586-1.414,2.034,2.034,0,0,0-.586-1.414,2.06,2.06,0,0,0-2.828,0c.694-.541,0-.03-.215.084-.169.089-.611.228.029.006-.151.053-.3.115-.451.165-.414.133-.853.164-1.264.288.208-.062.351-.042.046-.012-.124.012-.248.023-.373.031q-.448.029-.9.025c-.268,0-.536-.011-.8-.029-.123-.008-.246-.018-.368-.031-.07-.007-.14-.014-.21-.023q-.237-.029.2.026c-.054-.069-.5-.09-.6-.112-.193-.043-.386-.093-.575-.15-.166-.049-.327-.108-.49-.164-.44-.151.433.206.034.018-.2-.1-.4-.195-.6-.3a2,2,0,0,0-2.019,3.454Z"/><path class="b" d="M206.29,133.938a24.956,24.956,0,0,1,.585,2.675l-.072-.531a1.571,1.571,0,0,1,.01.369l.072-.532a.937.937,0,0,1-.041.166l.2-.478a.694.694,0,0,1-.059.107l.313-.405a.6.6,0,0,1-.088.087l.405-.313a1.864,1.864,0,0,1-.212.112l.478-.2a1.491,1.491,0,0,1-.357.1l.532-.071a1.4,1.4,0,0,1-.336,0l.532.072c-.126-.018-.25-.048-.377-.065a2.244,2.244,0,0,0-1.541.2,2,2,0,0,0-.717,2.737l.312.4a2,2,0,0,0,.883.515c.343.046.677.132,1.026.147a3.384,3.384,0,0,0,1.584-.387,2.422,2.422,0,0,0,1.3-1.581,3.7,3.7,0,0,0-.013-1.632c-.145-.862-.344-1.716-.566-2.561a2,2,0,0,0-2.46-1.4,2.03,2.03,0,0,0-1.2.919,2.1,2.1,0,0,0-.2,1.541Z"/><path class="b" d="M192.752,126.2c-.446,1.452-.155,4.791,2.595,5.075,3.635-.022,3.828-4.059,2.6-5.957C196.95,123.76,194,123.113,192.752,126.2Z"/><path class="b" d="M221.86,126.2c.446,1.452.155,4.791-2.6,5.075-3.635-.022-3.828-4.059-2.6-5.957C217.662,123.76,220.608,123.113,221.86,126.2Z"/></svg>