<?xml version="1.0" encoding="iso-8859-1"?>
<!-- Uploaded to: SVG Repo, www.svgrepo.com, Generator: SVG Repo Mixer Tools -->
<svg fill="#000000" version="1.1" id="Layer_1" xmlns="http://www.w3.org/2000/svg" xmlns:xlink="http://www.w3.org/1999/xlink" 
	 viewBox="0 0 512 512" xml:space="preserve">
<g>
	<g>
		<path d="M444.632,40.421h-95.376C325.892,15.557,292.731,0,256,0c-36.731,0-69.892,15.557-93.255,40.421H67.368
			c-33.432,0-60.632,27.199-60.632,60.632v350.316C6.737,484.801,33.936,512,67.368,512h377.263
			c33.432,0,60.632-27.199,60.632-60.632V101.053C505.263,67.62,478.064,40.421,444.632,40.421z M235.789,471.579H67.368
			c-11.144,0-20.211-9.066-20.211-20.211V101.053c0-11.144,9.066-20.211,20.211-20.211h69.635C131.197,95.442,128,111.355,128,128
			c0,63.702,46.779,116.679,107.789,126.399V471.579z M168.421,128c0-41.335,28.793-76.047,67.368-85.198V128h40.421V42.802
			c38.575,9.151,67.368,43.865,67.368,85.198c0,48.291-39.288,87.579-87.579,87.579C207.709,215.579,168.421,176.291,168.421,128z
			 M464.842,451.368c0,11.144-9.066,20.211-20.211,20.211H276.21v-217.18C337.221,244.679,384,191.704,384,128
			c0-16.645-3.197-32.558-9.003-47.158h69.635c11.144,0,20.211,9.066,20.211,20.211V451.368z"/>
	</g>
</g>
<g>
	<g>
		<rect x="94.316" y="296.421" width="94.316" height="40.421"/>
	</g>
</g>
<g>
	<g>
		<rect x="94.316" y="377.263" width="94.316" height="40.421"/>
	</g>
</g>
<g>
	<g>
		<rect x="323.368" y="296.421" width="94.316" height="40.421"/>
	</g>
</g>
<g>
	<g>
		<rect x="323.368" y="377.263" width="94.316" height="40.421"/>
	</g>
</g>
</svg>